{
 "cells": [
  {
   "cell_type": "markdown",
   "id": "18a799a9",
   "metadata": {},
   "source": [
    "# ios上架有一堆解析度需要調整，這裡做個工具幫忙調整"
   ]
  },
  {
   "cell_type": "markdown",
   "id": "d41ebacb",
   "metadata": {},
   "source": [
    "## MAC FFMPEG 安裝方式\n",
    "```\n",
    "brew install ffmpeg\n",
    "```\n",
    "https://juejin.cn/post/6844904191433900040\n",
    "https://stackoverflow.com/questions/54161418/python3-6-add-audio-to-cv2-processed-video"
   ]
  },
  {
   "cell_type": "markdown",
   "id": "f8fce15f",
   "metadata": {},
   "source": [
    "6.5 吋 886 x 1920 像素（直向）  \n",
    "5.5 吋  1080 x 1920   \n",
    "4.7 吋   750 x 1334 像素  \n",
    "12.9 吋   1200 x 1600   \n",
    "9.7 吋    900 x 1200   "
   ]
  },
  {
   "cell_type": "markdown",
   "id": "80d2a459",
   "metadata": {},
   "source": [
    "## 函式庫先執行"
   ]
  },
  {
   "cell_type": "code",
   "execution_count": 15,
   "id": "a4ddac8b",
   "metadata": {},
   "outputs": [],
   "source": [
    "#opencv內建的Resize 比例會跑掉，這是用裁切的方式等比例放大或是縮小\n",
    "def AkingResize(img , OutPutWidth , OutPutHeight):\n",
    "    InimgW = img.shape[1]\n",
    "    InimgH = img.shape[0]\n",
    "    InRatio = InimgW / InimgH\n",
    "    OutRatio = OutPutWidth / OutPutHeight\n",
    "    if (OutRatio > InRatio): #更扁平 所以縮放的時候寬度一樣，原圖的高度要裁切\n",
    "        #print (\"壓扁\")\n",
    "        NewHeight = int(InimgW * OutPutHeight / OutPutWidth)\n",
    "        CenterY = InimgH / 2\n",
    "        StartY = int(CenterY - NewHeight / 2)\n",
    "        EndY = StartY + NewHeight\n",
    "        NewImg = img[StartY:EndY,0:InimgW]\n",
    "        Resizedimage = cv2.resize(NewImg, (OutPutWidth, OutPutHeight), interpolation=cv2.INTER_CUBIC)\n",
    "    elif (OutRatio < InRatio): #更高長 所以縮放的時候高度一樣，原圖的寬度要裁切\n",
    "        #print (\"長高\")\n",
    "        NewWidth = int(InimgH * OutPutWidth / OutPutHeight)\n",
    "        CenterX = InimgW / 2\n",
    "        StartX = int(CenterX - NewWidth / 2)\n",
    "        EndX = StartX + NewWidth\n",
    "        NewImg = img[0:InimgH,StartX:EndX]\n",
    "        Resizedimage = cv2.resize(NewImg, (OutPutWidth, OutPutHeight), interpolation=cv2.INTER_CUBIC)\n",
    "    else: #相同比例\n",
    "        Resizedimage = cv2.resize(img, (OutPutWidth, OutPutHeight), interpolation=cv2.INTER_CUBIC)\n",
    "    return Resizedimage"
   ]
  },
  {
   "cell_type": "markdown",
   "id": "e024c7ff",
   "metadata": {},
   "source": [
    "## 照片調整"
   ]
  },
  {
   "cell_type": "code",
   "execution_count": 16,
   "id": "567e6f1e",
   "metadata": {},
   "outputs": [],
   "source": [
    "import cv2\n",
    "#InputPicPathName = r'/Users/aking/Desktop/Temp/886/6.png'  #輸入影像的路徑與檔名\n",
    "#OutPutWidth = 1242             #輸出寬度\n",
    "#OutPutHeight = 2688                #輸出高度\n",
    "#OutputPicPathName = r'/Users/aking/Desktop/Temp/1242/6.png'   #輸出影像的路徑與檔名\n",
    "\n",
    "#1242 2688. \n",
    "#1242 2208. \n",
    "#2048 2732\n",
    "#InputPicPathName = r'/Users/aking/Desktop/Temp/886/7.png'  #輸入影像的路徑與檔名\n",
    "#OutPutWidth = 2048             #輸出寬度\n",
    "#OutPutHeight = 2732                #輸出高度\n",
    "#OutputPicPathName = r'/Users/aking/Desktop/Temp/2732/7.png'   #輸出影像的路徑與檔名\n",
    "\n",
    "def ResizePic(InputPicPathName , OutPutWidth,OutPutHeight,OutputPicPathName):\n",
    "    #=============開始轉換====================================\n",
    "    img = cv2.imread(InputPicPathName)\n",
    "    if (img.any() != None):\n",
    "        Resizedimage = AkingResize(img , OutPutWidth , OutPutHeight)\n",
    "        cv2.imwrite(OutputPicPathName, Resizedimage)\n",
    "        # 顯示圖片\n",
    "        #cv2.imshow('Resized image', Resizedimage)\n",
    "        #cv2.waitKey(3)\n",
    "        #cv2.destroyAllWindows()\n",
    "        print (\"圖片轉換完成\")\n",
    "        # 按下任意鍵則關閉所有視窗\n",
    "    else:\n",
    "        print (\"圖片讀取失敗\")"
   ]
  },
  {
   "cell_type": "code",
   "execution_count": 22,
   "id": "a302b026",
   "metadata": {},
   "outputs": [
    {
     "name": "stdout",
     "output_type": "stream",
     "text": [
      "圖片轉換完成\n",
      "圖片轉換完成\n",
      "圖片轉換完成\n",
      "圖片轉換完成\n",
      "圖片轉換完成\n",
      "圖片轉換完成\n",
      "圖片轉換完成\n",
      "圖片轉換完成\n",
      "圖片轉換完成\n",
      "圖片轉換完成\n",
      "圖片轉換完成\n",
      "圖片轉換完成\n",
      "圖片轉換完成\n",
      "圖片轉換完成\n",
      "圖片轉換完成\n",
      "圖片轉換完成\n",
      "圖片轉換完成\n",
      "圖片轉換完成\n",
      "圖片轉換完成\n",
      "圖片轉換完成\n",
      "圖片轉換完成\n",
      "圖片轉換完成\n",
      "圖片轉換完成\n",
      "圖片轉換完成\n"
     ]
    }
   ],
   "source": [
    "from os import listdir\n",
    "from os.path import isfile, isdir, join\n",
    "import os\n",
    "sourcePath = r'/Users/aking/Desktop/Temp/Pic'\n",
    "\n",
    "def DoPic(sourcePath ,OutPutWidth ,OutPutHeight):\n",
    "    files = listdir(sourcePath)\n",
    "    OutputPicPath = join(sourcePath ,\"{}\".format(OutPutHeight ))\n",
    "    if not os.path.isdir(OutputPicPath):\n",
    "        os.mkdir(OutputPicPath)\n",
    "    for file in files:\n",
    "        #先搞定資料夾\n",
    "        print (file)\n",
    "        if (file == \".DS_Store\"):\n",
    "            continue\n",
    "        InputPicPathName = join(sourcePath ,file )\n",
    "        if (os.path.isfile(InputPicPathName)):\n",
    "            OutputPicPathName = join(OutputPicPath ,file )\n",
    "            ResizePic(InputPicPathName , OutPutWidth,OutPutHeight,OutputPicPathName)\n",
    "        \n",
    "DoPic(sourcePath , 1242 ,2688 )   \n",
    "DoPic(sourcePath , 1242 ,2208 ) \n",
    "DoPic(sourcePath , 2048 ,2732 ) \n",
    "\n",
    "#1242 2688. \n",
    "#1242 2208. \n",
    "#2048 2732"
   ]
  },
  {
   "cell_type": "markdown",
   "id": "701e45db",
   "metadata": {},
   "source": [
    "## 影片調整"
   ]
  },
  {
   "cell_type": "code",
   "execution_count": 4,
   "id": "7948e7cf",
   "metadata": {},
   "outputs": [],
   "source": [
    "import cv2\n",
    "import os\n",
    "\n",
    "def ResizeVideo(InputVideoPathName , OutPutWidth,OutPutHeight,OutputVideoPathName):\n",
    "    #=======================輸入設定====================================\n",
    "    video = cv2.VideoCapture(InputVideoPathName)\n",
    "    # 取得影像的尺寸大小\n",
    "    width = video.get(cv2.CAP_PROP_FRAME_WIDTH)\n",
    "    height = video.get(cv2.CAP_PROP_FRAME_HEIGHT)\n",
    "    fps = video.get(cv2.CAP_PROP_FPS) #每秒鐘幾張\n",
    "    print (\"原始寬度{} 高度{} FPS{}\".format(width , height,fps))\n",
    "\n",
    "\n",
    "    #=======================輸出檔案設定=======================\n",
    "    fourcc = cv2.VideoWriter_fourcc(*'avc1')\n",
    "    VideoFilePath = r\"{}/TmpVideo.mp4\".format(os.path.dirname(InputVideoPathName)) #解析度調整後的畫面\n",
    "    SoundFilePath = r\"{}/sound.mp3\".format(os.path.dirname(InputVideoPathName))    #原始檔案分離出聲音\n",
    "    VideoWithSoundFilePath = r\"{}/TmpVideoWithSound.mp4\".format(os.path.dirname(InputVideoPathName)) #畫面與聲音合成影片\n",
    "    #畫面與聲音合成影片 之後需要再轉檔一次 app store才會接受\n",
    "\n",
    "    out = cv2.VideoWriter(VideoFilePath, fourcc, fps, (int(OutPutWidth),  int(OutPutHeight)))\n",
    "    #=============開始轉換====================================\n",
    "    while video.isOpened():\n",
    "        ret, frame = video.read()\n",
    "        if not ret:\n",
    "            break\n",
    "        image = AkingResize(frame, OutPutWidth, OutPutHeight)\n",
    "        out.write(image)\n",
    "        cv2.imshow('frame', image)\n",
    "        if cv2.waitKey(1) == ord('q'):\n",
    "            break\n",
    "    video.release()\n",
    "    out.release()\n",
    "\n",
    "    CMD = r\"ffmpeg -i {} -f mp3 -ab 256000 -vn {}\".format(InputVideoPathName,SoundFilePath) #原始檔案分離出聲音\n",
    "    os.system(CMD) #原始檔案分離出聲音\n",
    "\n",
    "\n",
    "    CMD1 = r\"ffmpeg -i {} -i {} -c copy -map 0:v:0 -map 1:a:0 {}\".format(VideoFilePath, SoundFilePath , VideoWithSoundFilePath)\n",
    "    os.system(CMD1) #畫面與聲音合成影片\n",
    "\n",
    "    CMD2 = \"ffmpeg -i {} -filter_complex 'scale={}:{},framerate=30' {}\".format(VideoWithSoundFilePath , OutPutWidth,OutPutHeight,OutputVideoPathName)\n",
    "    os.system(CMD2) #最後再轉檔案一次 App store才會吃\n",
    "\n",
    "\n",
    "\n",
    "    os.system(\"rm -f {}\".format(VideoFilePath)) \n",
    "    os.system(\"rm -f {}\".format(SoundFilePath)) \n",
    "    os.system(\"rm -f {}\".format(VideoWithSoundFilePath)) \n",
    "\n",
    "\n",
    "\n",
    "    print(\"轉換完成\")\n",
    "    cv2.destroyAllWindows()\n",
    "    "
   ]
  },
  {
   "cell_type": "code",
   "execution_count": 5,
   "id": "48055050",
   "metadata": {},
   "outputs": [
    {
     "name": "stdout",
     "output_type": "stream",
     "text": [
      "原始寬度1170.0 高度2532.0 FPS45.54374543725344\n"
     ]
    },
    {
     "name": "stderr",
     "output_type": "stream",
     "text": [
      "ffmpeg version 5.0 Copyright (c) 2000-2022 the FFmpeg developers\n",
      "  built with Apple clang version 13.0.0 (clang-1300.0.29.30)\n",
      "  configuration: --prefix=/usr/local/Cellar/ffmpeg/5.0 --enable-shared --enable-pthreads --enable-version3 --cc=clang --host-cflags= --host-ldflags= --enable-ffplay --enable-gnutls --enable-gpl --enable-libaom --enable-libbluray --enable-libdav1d --enable-libmp3lame --enable-libopus --enable-librav1e --enable-librist --enable-librubberband --enable-libsnappy --enable-libsrt --enable-libtesseract --enable-libtheora --enable-libvidstab --enable-libvmaf --enable-libvorbis --enable-libvpx --enable-libwebp --enable-libx264 --enable-libx265 --enable-libxml2 --enable-libxvid --enable-lzma --enable-libfontconfig --enable-libfreetype --enable-frei0r --enable-libass --enable-libopencore-amrnb --enable-libopencore-amrwb --enable-libopenjpeg --enable-libspeex --enable-libsoxr --enable-libzmq --enable-libzimg --disable-libjack --disable-indev=jack --enable-videotoolbox\n",
      "  libavutil      57. 17.100 / 57. 17.100\n",
      "  libavcodec     59. 18.100 / 59. 18.100\n",
      "  libavformat    59. 16.100 / 59. 16.100\n",
      "  libavdevice    59.  4.100 / 59.  4.100\n",
      "  libavfilter     8. 24.100 /  8. 24.100\n",
      "  libswscale      6.  4.100 /  6.  4.100\n",
      "  libswresample   4.  3.100 /  4.  3.100\n",
      "  libpostproc    56.  3.100 / 56.  3.100\n",
      "Input #0, mov,mp4,m4a,3gp,3g2,mj2, from '/Users/aking/Desktop/Temp/付款示範.mov':\n",
      "  Metadata:\n",
      "    major_brand     : qt  \n",
      "    minor_version   : 0\n",
      "    compatible_brands: qt  \n",
      "    creation_time   : 2022-04-12T08:14:57.000000Z\n",
      "    com.apple.quicktime.make: Apple\n",
      "    com.apple.quicktime.model: MacBookPro14,3\n",
      "    com.apple.quicktime.software: macOS 12.2.1 (21D62)\n",
      "    com.apple.quicktime.creationdate: 2022-04-12T16:12:58+0800\n",
      "  Duration: 00:00:22.36, start: 0.000000, bitrate: 12816 kb/s\n",
      "  Stream #0:0[0x1](und): Video: h264 (High) (avc1 / 0x31637661), yuvj420p(pc, bt709, progressive), 1170x2532, 12790 kb/s, 45.54 fps, 29.92 tbr, 60k tbn (default)\n",
      "    Metadata:\n",
      "      creation_time   : 2022-04-12T08:14:57.000000Z\n",
      "      handler_name    : Core Media Video\n",
      "      vendor_id       : [0][0][0][0]\n",
      "      encoder         : H.264\n",
      "  Stream #0:1[0x2](und): Audio: aac (LC) (mp4a / 0x6134706D), 48000 Hz, stereo, fltp, 2 kb/s (default)\n",
      "    Metadata:\n",
      "      creation_time   : 2022-04-12T08:14:57.000000Z\n",
      "      handler_name    : Core Media Audio\n",
      "      vendor_id       : [0][0][0][0]\n",
      "Stream mapping:\n",
      "  Stream #0:1 -> #0:0 (aac (native) -> mp3 (libmp3lame))\n",
      "Press [q] to stop, [?] for help\n",
      "Output #0, mp3, to '/Users/aking/Desktop/Temp/sound.mp3':\n",
      "  Metadata:\n",
      "    major_brand     : qt  \n",
      "    minor_version   : 0\n",
      "    compatible_brands: qt  \n",
      "    com.apple.quicktime.creationdate: 2022-04-12T16:12:58+0800\n",
      "    com.apple.quicktime.make: Apple\n",
      "    com.apple.quicktime.model: MacBookPro14,3\n",
      "    com.apple.quicktime.software: macOS 12.2.1 (21D62)\n",
      "    TSSE            : Lavf59.16.100\n",
      "  Stream #0:0(und): Audio: mp3, 48000 Hz, stereo, fltp, 256 kb/s (default)\n",
      "    Metadata:\n",
      "      creation_time   : 2022-04-12T08:14:57.000000Z\n",
      "      handler_name    : Core Media Audio\n",
      "      vendor_id       : [0][0][0][0]\n",
      "      encoder         : Lavc59.18.100 libmp3lame\n",
      "size=     672kB time=00:00:22.38 bitrate= 245.8kbits/s speed= 133x    \n",
      "video:0kB audio:670kB subtitle:0kB other streams:0kB global headers:0kB muxing overhead: 0.163998%\n",
      "ffmpeg version 5.0 Copyright (c) 2000-2022 the FFmpeg developers\n",
      "  built with Apple clang version 13.0.0 (clang-1300.0.29.30)\n",
      "  configuration: --prefix=/usr/local/Cellar/ffmpeg/5.0 --enable-shared --enable-pthreads --enable-version3 --cc=clang --host-cflags= --host-ldflags= --enable-ffplay --enable-gnutls --enable-gpl --enable-libaom --enable-libbluray --enable-libdav1d --enable-libmp3lame --enable-libopus --enable-librav1e --enable-librist --enable-librubberband --enable-libsnappy --enable-libsrt --enable-libtesseract --enable-libtheora --enable-libvidstab --enable-libvmaf --enable-libvorbis --enable-libvpx --enable-libwebp --enable-libx264 --enable-libx265 --enable-libxml2 --enable-libxvid --enable-lzma --enable-libfontconfig --enable-libfreetype --enable-frei0r --enable-libass --enable-libopencore-amrnb --enable-libopencore-amrwb --enable-libopenjpeg --enable-libspeex --enable-libsoxr --enable-libzmq --enable-libzimg --disable-libjack --disable-indev=jack --enable-videotoolbox\n",
      "  libavutil      57. 17.100 / 57. 17.100\n",
      "  libavcodec     59. 18.100 / 59. 18.100\n",
      "  libavformat    59. 16.100 / 59. 16.100\n",
      "  libavdevice    59.  4.100 / 59.  4.100\n",
      "  libavfilter     8. 24.100 /  8. 24.100\n",
      "  libswscale      6.  4.100 /  6.  4.100\n",
      "  libswresample   4.  3.100 /  4.  3.100\n",
      "  libpostproc    56.  3.100 / 56.  3.100\n",
      "Input #0, mov,mp4,m4a,3gp,3g2,mj2, from '/Users/aking/Desktop/Temp/TmpVideo.mp4':\n",
      "  Metadata:\n",
      "    major_brand     : isom\n",
      "    minor_version   : 512\n",
      "    compatible_brands: isomiso2avc1mp41\n",
      "    encoder         : Lavf58.76.100\n",
      "  Duration: 00:00:22.37, start: 0.000000, bitrate: 15352 kb/s\n",
      "  Stream #0:0[0x1](und): Video: h264 (High) (avc1 / 0x31637661), yuv420p(progressive), 886x1920 [SAR 1:1 DAR 443:960], 15347 kb/s, 45.54 fps, 45.54 tbr, 45544 tbn (default)\n",
      "    Metadata:\n",
      "      handler_name    : VideoHandler\n",
      "      vendor_id       : [0][0][0][0]\n",
      "Input #1, mp3, from '/Users/aking/Desktop/Temp/sound.mp3':\n",
      "  Metadata:\n",
      "    major_brand     : qt  \n",
      "    minor_version   : 0\n",
      "    compatible_brands: qt  \n",
      "    com.apple.quicktime.creationdate: 2022-04-12T16:12:58+0800\n",
      "    com.apple.quicktime.make: Apple\n",
      "    com.apple.quicktime.model: MacBookPro14,3\n",
      "    com.apple.quicktime.software: macOS 12.2.1 (21D62)\n",
      "    encoder         : Lavf59.16.100\n",
      "  Duration: 00:00:21.46, start: 0.023021, bitrate: 256 kb/s\n",
      "  Stream #1:0: Audio: mp3, 48000 Hz, stereo, fltp, 256 kb/s\n",
      "    Metadata:\n",
      "      encoder         : Lavc59.18\n",
      "Output #0, mp4, to '/Users/aking/Desktop/Temp/TmpVideoWithSound.mp4':\n",
      "  Metadata:\n",
      "    major_brand     : isom\n",
      "    minor_version   : 512\n",
      "    compatible_brands: isomiso2avc1mp41\n",
      "    encoder         : Lavf59.16.100\n",
      "  Stream #0:0(und): Video: h264 (High) (avc1 / 0x31637661), yuv420p(progressive), 886x1920 [SAR 1:1 DAR 443:960], q=2-31, 15347 kb/s, 45.54 fps, 45.54 tbr, 45544 tbn (default)\n",
      "    Metadata:\n",
      "      handler_name    : VideoHandler\n",
      "      vendor_id       : [0][0][0][0]\n",
      "  Stream #0:1: Audio: mp3 (mp4a / 0x6134706D), 48000 Hz, stereo, fltp, 256 kb/s\n",
      "    Metadata:\n",
      "      encoder         : Lavc59.18\n",
      "Stream mapping:\n",
      "  Stream #0:0 -> #0:0 (copy)\n",
      "  Stream #1:0 -> #0:1 (copy)\n",
      "Press [q] to stop, [?] for help\n",
      "frame= 1019 fps=0.0 q=-1.0 Lsize=   42611kB time=00:00:22.33 bitrate=15632.1kbits/s speed= 221x    \n",
      "video:41918kB audio:670kB subtitle:0kB other streams:0kB global headers:0kB muxing overhead: 0.052120%\n",
      "ffmpeg version 5.0 Copyright (c) 2000-2022 the FFmpeg developers\n",
      "  built with Apple clang version 13.0.0 (clang-1300.0.29.30)\n",
      "  configuration: --prefix=/usr/local/Cellar/ffmpeg/5.0 --enable-shared --enable-pthreads --enable-version3 --cc=clang --host-cflags= --host-ldflags= --enable-ffplay --enable-gnutls --enable-gpl --enable-libaom --enable-libbluray --enable-libdav1d --enable-libmp3lame --enable-libopus --enable-librav1e --enable-librist --enable-librubberband --enable-libsnappy --enable-libsrt --enable-libtesseract --enable-libtheora --enable-libvidstab --enable-libvmaf --enable-libvorbis --enable-libvpx --enable-libwebp --enable-libx264 --enable-libx265 --enable-libxml2 --enable-libxvid --enable-lzma --enable-libfontconfig --enable-libfreetype --enable-frei0r --enable-libass --enable-libopencore-amrnb --enable-libopencore-amrwb --enable-libopenjpeg --enable-libspeex --enable-libsoxr --enable-libzmq --enable-libzimg --disable-libjack --disable-indev=jack --enable-videotoolbox\n",
      "  libavutil      57. 17.100 / 57. 17.100\n",
      "  libavcodec     59. 18.100 / 59. 18.100\n",
      "  libavformat    59. 16.100 / 59. 16.100\n",
      "  libavdevice    59.  4.100 / 59.  4.100\n",
      "  libavfilter     8. 24.100 /  8. 24.100\n",
      "  libswscale      6.  4.100 /  6.  4.100\n",
      "  libswresample   4.  3.100 /  4.  3.100\n",
      "  libpostproc    56.  3.100 / 56.  3.100\n",
      "Input #0, mov,mp4,m4a,3gp,3g2,mj2, from '/Users/aking/Desktop/Temp/TmpVideoWithSound.mp4':\n",
      "  Metadata:\n",
      "    major_brand     : isom\n",
      "    minor_version   : 512\n",
      "    compatible_brands: isomiso2avc1mp41\n",
      "    encoder         : Lavf59.16.100\n",
      "  Duration: 00:00:22.37, start: 0.000000, bitrate: 15601 kb/s\n",
      "  Stream #0:0[0x1](und): Video: h264 (High) (avc1 / 0x31637661), yuv420p(progressive), 886x1920 [SAR 1:1 DAR 443:960], 15347 kb/s, 45.54 fps, 45.54 tbr, 45544 tbn (default)\n",
      "    Metadata:\n",
      "      handler_name    : VideoHandler\n",
      "      vendor_id       : [0][0][0][0]\n",
      "  Stream #0:1[0x2](und): Audio: mp3 (mp4a / 0x6134706D), 48000 Hz, stereo, fltp, 256 kb/s (default)\n",
      "    Metadata:\n",
      "      handler_name    : SoundHandler\n",
      "      vendor_id       : [0][0][0][0]\n",
      "Stream mapping:\n",
      "  Stream #0:0 (h264) -> scale:default (graph 0)\n",
      "  framerate:default (graph 0) -> Stream #0:0 (libx264)\n",
      "  Stream #0:1 -> #0:1 (mp3 (mp3float) -> aac (native))\n",
      "Press [q] to stop, [?] for help\n",
      "[Parsed_framerate_1 @ 0x7facd8b06680] time base:1/45544 -> 1/683160 exact:1\n",
      "[Parsed_framerate_1 @ 0x7facd8b06680] fps -> fps:30/1 scene score:8.200000 interpolate start:15 end:240\n",
      "[libx264 @ 0x7facd7708d80] using SAR=1/1\n",
      "[libx264 @ 0x7facd7708d80] using cpu capabilities: MMX2 SSE2Fast SSSE3 SSE4.2 AVX FMA3 BMI2 AVX2\n",
      "[libx264 @ 0x7facd7708d80] profile High, level 4.0, 4:2:0, 8-bit\n",
      "[libx264 @ 0x7facd7708d80] 264 - core 163 r3060 5db6aa6 - H.264/MPEG-4 AVC codec - Copyleft 2003-2021 - http://www.videolan.org/x264.html - options: cabac=1 ref=3 deblock=1:0:0 analyse=0x3:0x113 me=hex subme=7 psy=1 psy_rd=1.00:0.00 mixed_ref=1 me_range=16 chroma_me=1 trellis=1 8x8dct=1 cqm=0 deadzone=21,11 fast_pskip=1 chroma_qp_offset=-2 threads=12 lookahead_threads=2 sliced_threads=0 nr=0 decimate=1 interlaced=0 bluray_compat=0 constrained_intra=0 bframes=3 b_pyramid=2 b_adapt=1 b_bias=0 direct=1 weightb=1 open_gop=0 weightp=2 keyint=250 keyint_min=25 scenecut=40 intra_refresh=0 rc_lookahead=40 rc=crf mbtree=1 crf=23.0 qcomp=0.60 qpmin=0 qpmax=69 qpstep=4 ip_ratio=1.40 aq=1:1.00\n",
      "Output #0, mp4, to '/Users/aking/Desktop/Temp/付款示範886.mp4':\n",
      "  Metadata:\n",
      "    major_brand     : isom\n",
      "    minor_version   : 512\n",
      "    compatible_brands: isomiso2avc1mp41\n",
      "    encoder         : Lavf59.16.100\n",
      "  Stream #0:0: Video: h264 (avc1 / 0x31637661), yuv420p(progressive), 886x1920 [SAR 1:1 DAR 443:960], q=2-31, 30 fps, 15360 tbn\n",
      "    Metadata:\n",
      "      encoder         : Lavc59.18.100 libx264\n",
      "    Side data:\n",
      "      cpb: bitrate max/min/avg: 0/0/0 buffer size: 0 vbv_delay: N/A\n",
      "  Stream #0:1(und): Audio: aac (LC) (mp4a / 0x6134706D), 48000 Hz, stereo, fltp, 128 kb/s (default)\n",
      "    Metadata:\n",
      "      handler_name    : SoundHandler\n",
      "      vendor_id       : [0][0][0][0]\n",
      "      encoder         : Lavc59.18.100 aac\n"
     ]
    },
    {
     "name": "stderr",
     "output_type": "stream",
     "text": [
      "frame=  649 fps= 64 q=29.0 size=    4352kB time=00:00:21.37 bitrate=1667.9kbits/s speed= 2.1x    \r"
     ]
    },
    {
     "name": "stdout",
     "output_type": "stream",
     "text": [
      "轉換完成\n"
     ]
    },
    {
     "name": "stderr",
     "output_type": "stream",
     "text": [
      "frame=  672 fps= 65 q=-1.0 Lsize=    4612kB time=00:00:22.30 bitrate=1694.4kbits/s speed=2.14x    \n",
      "video:4582kB audio:6kB subtitle:0kB other streams:0kB global headers:0kB muxing overhead: 0.537162%\n",
      "[libx264 @ 0x7facd7708d80] frame I:7     Avg QP:15.46  size: 32551\n",
      "[libx264 @ 0x7facd7708d80] frame P:197   Avg QP:19.43  size: 12812\n",
      "[libx264 @ 0x7facd7708d80] frame B:468   Avg QP:20.54  size:  4144\n",
      "[libx264 @ 0x7facd7708d80] consecutive B-frames:  4.8%  5.7%  4.5% 85.1%\n",
      "[libx264 @ 0x7facd7708d80] mb I  I16..4: 47.1% 44.8%  8.1%\n",
      "[libx264 @ 0x7facd7708d80] mb P  I16..4:  8.7% 11.0%  1.8%  P16..4: 13.5%  2.5%  1.2%  0.0%  0.0%    skip:61.4%\n",
      "[libx264 @ 0x7facd7708d80] mb B  I16..4:  1.1%  1.5%  0.1%  B16..8: 13.1%  1.4%  0.2%  direct: 1.8%  skip:80.8%  L0:45.8% L1:51.2% BI: 2.9%\n",
      "[libx264 @ 0x7facd7708d80] 8x8 transform intra:51.4% inter:86.2%\n",
      "[libx264 @ 0x7facd7708d80] coded y,uvDC,uvAC intra: 27.0% 30.0% 6.0% inter: 4.6% 5.7% 0.1%\n",
      "[libx264 @ 0x7facd7708d80] i16 v,h,dc,p: 60% 26%  5% 10%\n",
      "[libx264 @ 0x7facd7708d80] i8 v,h,dc,ddl,ddr,vr,hd,vl,hu: 30% 18% 29%  3%  4%  4%  5%  4%  3%\n",
      "[libx264 @ 0x7facd7708d80] i4 v,h,dc,ddl,ddr,vr,hd,vl,hu: 35% 27% 12%  3%  5%  6%  5%  4%  3%\n",
      "[libx264 @ 0x7facd7708d80] i8c dc,h,v,p: 64% 18% 15%  3%\n",
      "[libx264 @ 0x7facd7708d80] Weighted P-Frames: Y:1.0% UV:0.5%\n",
      "[libx264 @ 0x7facd7708d80] ref P L0: 58.8% 11.0% 21.2%  9.1%  0.0%\n",
      "[libx264 @ 0x7facd7708d80] ref B L0: 77.2% 18.5%  4.3%\n",
      "[libx264 @ 0x7facd7708d80] ref B L1: 93.0%  7.0%\n",
      "[libx264 @ 0x7facd7708d80] kb/s:1675.37\n",
      "[aac @ 0x7facd770a180] Qavg: 65536.000\n"
     ]
    }
   ],
   "source": [
    "InputVideoPathName = r'/Users/aking/Desktop/Temp/付款示範.mov' #輸入影像的路徑與檔名\n",
    "OutPutWidth = 886           #輸出寬度\n",
    "OutPutHeight = 1920                #輸出高度\n",
    "OutputVideoPathName = r'/Users/aking/Desktop/Temp/付款示範{}.mp4'.format(OutPutWidth)   #輸出影像的路徑與檔名\n",
    "ResizeVideo(InputVideoPathName,OutPutWidth,OutPutHeight,OutputVideoPathName)"
   ]
  },
  {
   "cell_type": "code",
   "execution_count": 6,
   "id": "90170d57",
   "metadata": {},
   "outputs": [
    {
     "name": "stdout",
     "output_type": "stream",
     "text": [
      "原始寬度498.0 高度1080.0 FPS30.0\n"
     ]
    },
    {
     "name": "stderr",
     "output_type": "stream",
     "text": [
      "ffmpeg version 5.0 Copyright (c) 2000-2022 the FFmpeg developers\n",
      "  built with Apple clang version 13.0.0 (clang-1300.0.29.30)\n",
      "  configuration: --prefix=/usr/local/Cellar/ffmpeg/5.0 --enable-shared --enable-pthreads --enable-version3 --cc=clang --host-cflags= --host-ldflags= --enable-ffplay --enable-gnutls --enable-gpl --enable-libaom --enable-libbluray --enable-libdav1d --enable-libmp3lame --enable-libopus --enable-librav1e --enable-librist --enable-librubberband --enable-libsnappy --enable-libsrt --enable-libtesseract --enable-libtheora --enable-libvidstab --enable-libvmaf --enable-libvorbis --enable-libvpx --enable-libwebp --enable-libx264 --enable-libx265 --enable-libxml2 --enable-libxvid --enable-lzma --enable-libfontconfig --enable-libfreetype --enable-frei0r --enable-libass --enable-libopencore-amrnb --enable-libopencore-amrwb --enable-libopenjpeg --enable-libspeex --enable-libsoxr --enable-libzmq --enable-libzimg --disable-libjack --disable-indev=jack --enable-videotoolbox\n",
      "  libavutil      57. 17.100 / 57. 17.100\n",
      "  libavcodec     59. 18.100 / 59. 18.100\n",
      "  libavformat    59. 16.100 / 59. 16.100\n",
      "  libavdevice    59.  4.100 / 59.  4.100\n",
      "  libavfilter     8. 24.100 /  8. 24.100\n",
      "  libswscale      6.  4.100 /  6.  4.100\n",
      "  libswresample   4.  3.100 /  4.  3.100\n",
      "  libpostproc    56.  3.100 / 56.  3.100\n",
      "Input #0, mov,mp4,m4a,3gp,3g2,mj2, from '/Users/aking/Desktop/Temp/GiantShow.mp4':\n",
      "  Metadata:\n",
      "    major_brand     : mp42\n",
      "    minor_version   : 1\n",
      "    compatible_brands: isommp41mp42\n",
      "    creation_time   : 2022-04-12T08:46:33.000000Z\n",
      "  Duration: 00:00:29.70, start: 0.000000, bitrate: 7424 kb/s\n",
      "  Stream #0:0[0x1](zho): Audio: aac (LC) (mp4a / 0x6134706D), 48000 Hz, stereo, fltp, 2 kb/s (default)\n",
      "    Metadata:\n",
      "      creation_time   : 2022-04-12T08:46:33.000000Z\n",
      "      handler_name    : Core Media Audio\n",
      "      vendor_id       : [0][0][0][0]\n",
      "  Stream #0:1[0x2](und): Video: h264 (High) (avc1 / 0x31637661), yuv420p(tv, bt709, progressive), 498x1080 [SAR 1:1 DAR 83:180], 7391 kb/s, 30 fps, 30 tbr, 30k tbn (default)\n",
      "    Metadata:\n",
      "      creation_time   : 2022-04-12T08:46:33.000000Z\n",
      "      handler_name    : Core Media Video\n",
      "      vendor_id       : [0][0][0][0]\n",
      "Stream mapping:\n",
      "  Stream #0:0 -> #0:0 (aac (native) -> mp3 (libmp3lame))\n",
      "Press [q] to stop, [?] for help\n",
      "Output #0, mp3, to '/Users/aking/Desktop/Temp/sound.mp3':\n",
      "  Metadata:\n",
      "    major_brand     : mp42\n",
      "    minor_version   : 1\n",
      "    compatible_brands: isommp41mp42\n",
      "    TSSE            : Lavf59.16.100\n",
      "  Stream #0:0(zho): Audio: mp3, 48000 Hz, stereo, fltp, 256 kb/s (default)\n",
      "    Metadata:\n",
      "      creation_time   : 2022-04-12T08:46:33.000000Z\n",
      "      handler_name    : Core Media Audio\n",
      "      vendor_id       : [0][0][0][0]\n",
      "      encoder         : Lavc59.18.100 libmp3lame\n",
      "size=     931kB time=00:00:29.73 bitrate= 256.4kbits/s speed= 162x    \n",
      "video:0kB audio:930kB subtitle:0kB other streams:0kB global headers:0kB muxing overhead: 0.095556%\n",
      "ffmpeg version 5.0 Copyright (c) 2000-2022 the FFmpeg developers\n",
      "  built with Apple clang version 13.0.0 (clang-1300.0.29.30)\n",
      "  configuration: --prefix=/usr/local/Cellar/ffmpeg/5.0 --enable-shared --enable-pthreads --enable-version3 --cc=clang --host-cflags= --host-ldflags= --enable-ffplay --enable-gnutls --enable-gpl --enable-libaom --enable-libbluray --enable-libdav1d --enable-libmp3lame --enable-libopus --enable-librav1e --enable-librist --enable-librubberband --enable-libsnappy --enable-libsrt --enable-libtesseract --enable-libtheora --enable-libvidstab --enable-libvmaf --enable-libvorbis --enable-libvpx --enable-libwebp --enable-libx264 --enable-libx265 --enable-libxml2 --enable-libxvid --enable-lzma --enable-libfontconfig --enable-libfreetype --enable-frei0r --enable-libass --enable-libopencore-amrnb --enable-libopencore-amrwb --enable-libopenjpeg --enable-libspeex --enable-libsoxr --enable-libzmq --enable-libzimg --disable-libjack --disable-indev=jack --enable-videotoolbox\n",
      "  libavutil      57. 17.100 / 57. 17.100\n",
      "  libavcodec     59. 18.100 / 59. 18.100\n",
      "  libavformat    59. 16.100 / 59. 16.100\n",
      "  libavdevice    59.  4.100 / 59.  4.100\n",
      "  libavfilter     8. 24.100 /  8. 24.100\n",
      "  libswscale      6.  4.100 /  6.  4.100\n",
      "  libswresample   4.  3.100 /  4.  3.100\n",
      "  libpostproc    56.  3.100 / 56.  3.100\n",
      "Input #0, mov,mp4,m4a,3gp,3g2,mj2, from '/Users/aking/Desktop/Temp/TmpVideo.mp4':\n",
      "  Metadata:\n",
      "    major_brand     : isom\n",
      "    minor_version   : 512\n",
      "    compatible_brands: isomiso2avc1mp41\n",
      "    encoder         : Lavf58.76.100\n",
      "  Duration: 00:00:29.70, start: 0.000000, bitrate: 25991 kb/s\n",
      "  Stream #0:0[0x1](und): Video: h264 (High) (avc1 / 0x31637661), yuv420p(progressive), 886x1920 [SAR 1:1 DAR 443:960], 25988 kb/s, 30 fps, 30 tbr, 15360 tbn (default)\n",
      "    Metadata:\n",
      "      handler_name    : VideoHandler\n",
      "      vendor_id       : [0][0][0][0]\n",
      "Input #1, mp3, from '/Users/aking/Desktop/Temp/sound.mp3':\n",
      "  Metadata:\n",
      "    major_brand     : mp42\n",
      "    minor_version   : 1\n",
      "    compatible_brands: isommp41mp42\n",
      "    encoder         : Lavf59.16.100\n",
      "  Duration: 00:00:29.76, start: 0.023021, bitrate: 256 kb/s\n",
      "  Stream #1:0: Audio: mp3, 48000 Hz, stereo, fltp, 256 kb/s\n",
      "    Metadata:\n",
      "      encoder         : Lavc59.18\n",
      "Output #0, mp4, to '/Users/aking/Desktop/Temp/TmpVideoWithSound.mp4':\n",
      "  Metadata:\n",
      "    major_brand     : isom\n",
      "    minor_version   : 512\n",
      "    compatible_brands: isomiso2avc1mp41\n",
      "    encoder         : Lavf59.16.100\n",
      "  Stream #0:0(und): Video: h264 (High) (avc1 / 0x31637661), yuv420p(progressive), 886x1920 [SAR 1:1 DAR 443:960], q=2-31, 25988 kb/s, 30 fps, 30 tbr, 15360 tbn (default)\n",
      "    Metadata:\n",
      "      handler_name    : VideoHandler\n",
      "      vendor_id       : [0][0][0][0]\n",
      "  Stream #0:1: Audio: mp3 (mp4a / 0x6134706D), 48000 Hz, stereo, fltp, 256 kb/s\n",
      "    Metadata:\n",
      "      encoder         : Lavc59.18\n",
      "Stream mapping:\n",
      "  Stream #0:0 -> #0:0 (copy)\n",
      "  Stream #1:0 -> #0:1 (copy)\n",
      "Press [q] to stop, [?] for help\n",
      "frame=  891 fps=0.0 q=-1.0 Lsize=   95176kB time=00:00:29.73 bitrate=26219.3kbits/s speed=38.4x    \n",
      "video:94219kB audio:930kB subtitle:0kB other streams:0kB global headers:0kB muxing overhead: 0.028218%\n",
      "ffmpeg version 5.0 Copyright (c) 2000-2022 the FFmpeg developers\n",
      "  built with Apple clang version 13.0.0 (clang-1300.0.29.30)\n",
      "  configuration: --prefix=/usr/local/Cellar/ffmpeg/5.0 --enable-shared --enable-pthreads --enable-version3 --cc=clang --host-cflags= --host-ldflags= --enable-ffplay --enable-gnutls --enable-gpl --enable-libaom --enable-libbluray --enable-libdav1d --enable-libmp3lame --enable-libopus --enable-librav1e --enable-librist --enable-librubberband --enable-libsnappy --enable-libsrt --enable-libtesseract --enable-libtheora --enable-libvidstab --enable-libvmaf --enable-libvorbis --enable-libvpx --enable-libwebp --enable-libx264 --enable-libx265 --enable-libxml2 --enable-libxvid --enable-lzma --enable-libfontconfig --enable-libfreetype --enable-frei0r --enable-libass --enable-libopencore-amrnb --enable-libopencore-amrwb --enable-libopenjpeg --enable-libspeex --enable-libsoxr --enable-libzmq --enable-libzimg --disable-libjack --disable-indev=jack --enable-videotoolbox\n",
      "  libavutil      57. 17.100 / 57. 17.100\n",
      "  libavcodec     59. 18.100 / 59. 18.100\n",
      "  libavformat    59. 16.100 / 59. 16.100\n",
      "  libavdevice    59.  4.100 / 59.  4.100\n",
      "  libavfilter     8. 24.100 /  8. 24.100\n",
      "  libswscale      6.  4.100 /  6.  4.100\n",
      "  libswresample   4.  3.100 /  4.  3.100\n",
      "  libpostproc    56.  3.100 / 56.  3.100\n",
      "Input #0, mov,mp4,m4a,3gp,3g2,mj2, from '/Users/aking/Desktop/Temp/TmpVideoWithSound.mp4':\n",
      "  Metadata:\n",
      "    major_brand     : isom\n",
      "    minor_version   : 512\n",
      "    compatible_brands: isomiso2avc1mp41\n",
      "    encoder         : Lavf59.16.100\n",
      "  Duration: 00:00:29.74, start: 0.000000, bitrate: 26219 kb/s\n",
      "  Stream #0:0[0x1](und): Video: h264 (High) (avc1 / 0x31637661), yuv420p(progressive), 886x1920 [SAR 1:1 DAR 443:960], 25988 kb/s, 30 fps, 30 tbr, 15360 tbn (default)\n",
      "    Metadata:\n",
      "      handler_name    : VideoHandler\n",
      "      vendor_id       : [0][0][0][0]\n",
      "  Stream #0:1[0x2](und): Audio: mp3 (mp4a / 0x6134706D), 48000 Hz, stereo, fltp, 256 kb/s (default)\n",
      "    Metadata:\n",
      "      handler_name    : SoundHandler\n",
      "      vendor_id       : [0][0][0][0]\n",
      "Stream mapping:\n",
      "  Stream #0:0 (h264) -> scale:default (graph 0)\n",
      "  framerate:default (graph 0) -> Stream #0:0 (libx264)\n",
      "  Stream #0:1 -> #0:1 (mp3 (mp3float) -> aac (native))\n",
      "Press [q] to stop, [?] for help\n",
      "[Parsed_framerate_1 @ 0x7fc4a0305300] time base:1/15360 -> 1/15360 exact:1\n",
      "[Parsed_framerate_1 @ 0x7fc4a0305300] fps -> fps:30/1 scene score:8.200000 interpolate start:15 end:240\n",
      "[libx264 @ 0x7fc49c705440] using SAR=1/1\n",
      "[libx264 @ 0x7fc49c705440] using cpu capabilities: MMX2 SSE2Fast SSSE3 SSE4.2 AVX FMA3 BMI2 AVX2\n",
      "[libx264 @ 0x7fc49c705440] profile High, level 4.0, 4:2:0, 8-bit\n",
      "[libx264 @ 0x7fc49c705440] 264 - core 163 r3060 5db6aa6 - H.264/MPEG-4 AVC codec - Copyleft 2003-2021 - http://www.videolan.org/x264.html - options: cabac=1 ref=3 deblock=1:0:0 analyse=0x3:0x113 me=hex subme=7 psy=1 psy_rd=1.00:0.00 mixed_ref=1 me_range=16 chroma_me=1 trellis=1 8x8dct=1 cqm=0 deadzone=21,11 fast_pskip=1 chroma_qp_offset=-2 threads=12 lookahead_threads=2 sliced_threads=0 nr=0 decimate=1 interlaced=0 bluray_compat=0 constrained_intra=0 bframes=3 b_pyramid=2 b_adapt=1 b_bias=0 direct=1 weightb=1 open_gop=0 weightp=2 keyint=250 keyint_min=25 scenecut=40 intra_refresh=0 rc_lookahead=40 rc=crf mbtree=1 crf=23.0 qcomp=0.60 qpmin=0 qpmax=69 qpstep=4 ip_ratio=1.40 aq=1:1.00\n",
      "Output #0, mp4, to '/Users/aking/Desktop/Temp/GiantShow886.mp4':\n",
      "  Metadata:\n",
      "    major_brand     : isom\n",
      "    minor_version   : 512\n",
      "    compatible_brands: isomiso2avc1mp41\n",
      "    encoder         : Lavf59.16.100\n",
      "  Stream #0:0: Video: h264 (avc1 / 0x31637661), yuv420p(progressive), 886x1920 [SAR 1:1 DAR 443:960], q=2-31, 30 fps, 15360 tbn\n",
      "    Metadata:\n",
      "      encoder         : Lavc59.18.100 libx264\n",
      "    Side data:\n",
      "      cpb: bitrate max/min/avg: 0/0/0 buffer size: 0 vbv_delay: N/A\n",
      "  Stream #0:1(und): Audio: aac (LC) (mp4a / 0x6134706D), 48000 Hz, stereo, fltp, 128 kb/s (default)\n",
      "    Metadata:\n",
      "      handler_name    : SoundHandler\n",
      "      vendor_id       : [0][0][0][0]\n",
      "      encoder         : Lavc59.18.100 aac\n"
     ]
    },
    {
     "name": "stderr",
     "output_type": "stream",
     "text": [
      "frame=  891 fps= 37 q=-1.0 Lsize=   15869kB time=00:00:29.73 bitrate=4371.5kbits/s speed=1.23x    \n",
      "video:15828kB audio:8kB subtitle:0kB other streams:0kB global headers:0kB muxing overhead: 0.206150%\n",
      "[libx264 @ 0x7fc49c705440] frame I:14    Avg QP:19.86  size: 75976\n",
      "[libx264 @ 0x7fc49c705440] frame P:337   Avg QP:23.91  size: 28888\n",
      "[libx264 @ 0x7fc49c705440] frame B:540   Avg QP:25.47  size: 10016\n",
      "[libx264 @ 0x7fc49c705440] consecutive B-frames: 13.7% 13.5%  9.1% 63.7%\n",
      "[libx264 @ 0x7fc49c705440] mb I  I16..4: 17.2% 69.2% 13.6%\n",
      "[libx264 @ 0x7fc49c705440] mb P  I16..4:  9.0% 22.9%  2.1%  P16..4: 30.1% 10.5%  4.0%  0.0%  0.0%    skip:21.4%\n",
      "[libx264 @ 0x7fc49c705440] mb B  I16..4:  1.7%  2.6%  0.2%  B16..8: 33.7%  4.6%  0.7%  direct: 3.4%  skip:53.2%  L0:43.6% L1:51.0% BI: 5.5%\n",
      "[libx264 @ 0x7fc49c705440] 8x8 transform intra:66.0% inter:80.4%\n",
      "[libx264 @ 0x7fc49c705440] coded y,uvDC,uvAC intra: 32.7% 37.2% 9.2% inter: 15.2% 14.5% 0.3%\n",
      "[libx264 @ 0x7fc49c705440] i16 v,h,dc,p: 40% 39% 10% 11%\n",
      "[libx264 @ 0x7fc49c705440] i8 v,h,dc,ddl,ddr,vr,hd,vl,hu: 28% 19% 35%  3%  2%  3%  3%  3%  4%\n",
      "[libx264 @ 0x7fc49c705440] i4 v,h,dc,ddl,ddr,vr,hd,vl,hu: 34% 25% 11%  4%  5%  6%  7%  4%  4%\n",
      "[libx264 @ 0x7fc49c705440] i8c dc,h,v,p: 61% 19% 18%  2%\n",
      "[libx264 @ 0x7fc49c705440] Weighted P-Frames: Y:19.6% UV:4.2%\n",
      "[libx264 @ 0x7fc49c705440] ref P L0: 60.4% 24.6% 11.1%  3.5%  0.4%\n",
      "[libx264 @ 0x7fc49c705440] ref B L0: 90.8%  7.4%  1.8%\n",
      "[libx264 @ 0x7fc49c705440] ref B L1: 97.2%  2.8%\n",
      "[libx264 @ 0x7fc49c705440] kb/s:4365.69\n",
      "[aac @ 0x7fc49c706c40] Qavg: 65536.000\n"
     ]
    },
    {
     "name": "stdout",
     "output_type": "stream",
     "text": [
      "轉換完成\n",
      "原始寬度498.0 高度1080.0 FPS30.0\n"
     ]
    },
    {
     "name": "stderr",
     "output_type": "stream",
     "text": [
      "ffmpeg version 5.0 Copyright (c) 2000-2022 the FFmpeg developers\n",
      "  built with Apple clang version 13.0.0 (clang-1300.0.29.30)\n",
      "  configuration: --prefix=/usr/local/Cellar/ffmpeg/5.0 --enable-shared --enable-pthreads --enable-version3 --cc=clang --host-cflags= --host-ldflags= --enable-ffplay --enable-gnutls --enable-gpl --enable-libaom --enable-libbluray --enable-libdav1d --enable-libmp3lame --enable-libopus --enable-librav1e --enable-librist --enable-librubberband --enable-libsnappy --enable-libsrt --enable-libtesseract --enable-libtheora --enable-libvidstab --enable-libvmaf --enable-libvorbis --enable-libvpx --enable-libwebp --enable-libx264 --enable-libx265 --enable-libxml2 --enable-libxvid --enable-lzma --enable-libfontconfig --enable-libfreetype --enable-frei0r --enable-libass --enable-libopencore-amrnb --enable-libopencore-amrwb --enable-libopenjpeg --enable-libspeex --enable-libsoxr --enable-libzmq --enable-libzimg --disable-libjack --disable-indev=jack --enable-videotoolbox\n",
      "  libavutil      57. 17.100 / 57. 17.100\n",
      "  libavcodec     59. 18.100 / 59. 18.100\n",
      "  libavformat    59. 16.100 / 59. 16.100\n",
      "  libavdevice    59.  4.100 / 59.  4.100\n",
      "  libavfilter     8. 24.100 /  8. 24.100\n",
      "  libswscale      6.  4.100 /  6.  4.100\n",
      "  libswresample   4.  3.100 /  4.  3.100\n",
      "  libpostproc    56.  3.100 / 56.  3.100\n",
      "Input #0, mov,mp4,m4a,3gp,3g2,mj2, from '/Users/aking/Desktop/Temp/GiantShow.mp4':\n",
      "  Metadata:\n",
      "    major_brand     : mp42\n",
      "    minor_version   : 1\n",
      "    compatible_brands: isommp41mp42\n",
      "    creation_time   : 2022-04-12T08:46:33.000000Z\n",
      "  Duration: 00:00:29.70, start: 0.000000, bitrate: 7424 kb/s\n",
      "  Stream #0:0[0x1](zho): Audio: aac (LC) (mp4a / 0x6134706D), 48000 Hz, stereo, fltp, 2 kb/s (default)\n",
      "    Metadata:\n",
      "      creation_time   : 2022-04-12T08:46:33.000000Z\n",
      "      handler_name    : Core Media Audio\n",
      "      vendor_id       : [0][0][0][0]\n",
      "  Stream #0:1[0x2](und): Video: h264 (High) (avc1 / 0x31637661), yuv420p(tv, bt709, progressive), 498x1080 [SAR 1:1 DAR 83:180], 7391 kb/s, 30 fps, 30 tbr, 30k tbn (default)\n",
      "    Metadata:\n",
      "      creation_time   : 2022-04-12T08:46:33.000000Z\n",
      "      handler_name    : Core Media Video\n",
      "      vendor_id       : [0][0][0][0]\n",
      "Stream mapping:\n",
      "  Stream #0:0 -> #0:0 (aac (native) -> mp3 (libmp3lame))\n",
      "Press [q] to stop, [?] for help\n",
      "Output #0, mp3, to '/Users/aking/Desktop/Temp/sound.mp3':\n",
      "  Metadata:\n",
      "    major_brand     : mp42\n",
      "    minor_version   : 1\n",
      "    compatible_brands: isommp41mp42\n",
      "    TSSE            : Lavf59.16.100\n",
      "  Stream #0:0(zho): Audio: mp3, 48000 Hz, stereo, fltp, 256 kb/s (default)\n",
      "    Metadata:\n",
      "      creation_time   : 2022-04-12T08:46:33.000000Z\n",
      "      handler_name    : Core Media Audio\n",
      "      vendor_id       : [0][0][0][0]\n",
      "      encoder         : Lavc59.18.100 libmp3lame\n",
      "size=     931kB time=00:00:29.73 bitrate= 256.4kbits/s speed= 169x    \n",
      "video:0kB audio:930kB subtitle:0kB other streams:0kB global headers:0kB muxing overhead: 0.095556%\n",
      "ffmpeg version 5.0 Copyright (c) 2000-2022 the FFmpeg developers\n",
      "  built with Apple clang version 13.0.0 (clang-1300.0.29.30)\n",
      "  configuration: --prefix=/usr/local/Cellar/ffmpeg/5.0 --enable-shared --enable-pthreads --enable-version3 --cc=clang --host-cflags= --host-ldflags= --enable-ffplay --enable-gnutls --enable-gpl --enable-libaom --enable-libbluray --enable-libdav1d --enable-libmp3lame --enable-libopus --enable-librav1e --enable-librist --enable-librubberband --enable-libsnappy --enable-libsrt --enable-libtesseract --enable-libtheora --enable-libvidstab --enable-libvmaf --enable-libvorbis --enable-libvpx --enable-libwebp --enable-libx264 --enable-libx265 --enable-libxml2 --enable-libxvid --enable-lzma --enable-libfontconfig --enable-libfreetype --enable-frei0r --enable-libass --enable-libopencore-amrnb --enable-libopencore-amrwb --enable-libopenjpeg --enable-libspeex --enable-libsoxr --enable-libzmq --enable-libzimg --disable-libjack --disable-indev=jack --enable-videotoolbox\n",
      "  libavutil      57. 17.100 / 57. 17.100\n",
      "  libavcodec     59. 18.100 / 59. 18.100\n",
      "  libavformat    59. 16.100 / 59. 16.100\n",
      "  libavdevice    59.  4.100 / 59.  4.100\n",
      "  libavfilter     8. 24.100 /  8. 24.100\n",
      "  libswscale      6.  4.100 /  6.  4.100\n",
      "  libswresample   4.  3.100 /  4.  3.100\n",
      "  libpostproc    56.  3.100 / 56.  3.100\n",
      "Input #0, mov,mp4,m4a,3gp,3g2,mj2, from '/Users/aking/Desktop/Temp/TmpVideo.mp4':\n",
      "  Metadata:\n",
      "    major_brand     : isom\n",
      "    minor_version   : 512\n",
      "    compatible_brands: isomiso2avc1mp41\n",
      "    encoder         : Lavf58.76.100\n",
      "  Duration: 00:00:29.70, start: 0.000000, bitrate: 31601 kb/s\n",
      "  Stream #0:0[0x1](und): Video: h264 (High) (avc1 / 0x31637661), yuv420p(progressive), 1080x1920 [SAR 1:1 DAR 9:16], 31598 kb/s, 30 fps, 30 tbr, 15360 tbn (default)\n",
      "    Metadata:\n",
      "      handler_name    : VideoHandler\n",
      "      vendor_id       : [0][0][0][0]\n",
      "Input #1, mp3, from '/Users/aking/Desktop/Temp/sound.mp3':\n",
      "  Metadata:\n",
      "    major_brand     : mp42\n",
      "    minor_version   : 1\n",
      "    compatible_brands: isommp41mp42\n",
      "    encoder         : Lavf59.16.100\n",
      "  Duration: 00:00:29.76, start: 0.023021, bitrate: 256 kb/s\n",
      "  Stream #1:0: Audio: mp3, 48000 Hz, stereo, fltp, 256 kb/s\n",
      "    Metadata:\n",
      "      encoder         : Lavc59.18\n",
      "Output #0, mp4, to '/Users/aking/Desktop/Temp/TmpVideoWithSound.mp4':\n",
      "  Metadata:\n",
      "    major_brand     : isom\n",
      "    minor_version   : 512\n",
      "    compatible_brands: isomiso2avc1mp41\n",
      "    encoder         : Lavf59.16.100\n",
      "  Stream #0:0(und): Video: h264 (High) (avc1 / 0x31637661), yuv420p(progressive), 1080x1920 [SAR 1:1 DAR 9:16], q=2-31, 31598 kb/s, 30 fps, 30 tbr, 15360 tbn (default)\n",
      "    Metadata:\n",
      "      handler_name    : VideoHandler\n",
      "      vendor_id       : [0][0][0][0]\n",
      "  Stream #0:1: Audio: mp3 (mp4a / 0x6134706D), 48000 Hz, stereo, fltp, 256 kb/s\n",
      "    Metadata:\n",
      "      encoder         : Lavc59.18\n",
      "Stream mapping:\n",
      "  Stream #0:0 -> #0:0 (copy)\n",
      "  Stream #1:0 -> #0:1 (copy)\n",
      "Press [q] to stop, [?] for help\n",
      "frame=  891 fps=0.0 q=-1.0 Lsize=  115516kB time=00:00:29.73 bitrate=31822.7kbits/s speed= 137x    \n",
      "video:114559kB audio:930kB subtitle:0kB other streams:0kB global headers:0kB muxing overhead: 0.023249%\n",
      "ffmpeg version 5.0 Copyright (c) 2000-2022 the FFmpeg developers\n",
      "  built with Apple clang version 13.0.0 (clang-1300.0.29.30)\n",
      "  configuration: --prefix=/usr/local/Cellar/ffmpeg/5.0 --enable-shared --enable-pthreads --enable-version3 --cc=clang --host-cflags= --host-ldflags= --enable-ffplay --enable-gnutls --enable-gpl --enable-libaom --enable-libbluray --enable-libdav1d --enable-libmp3lame --enable-libopus --enable-librav1e --enable-librist --enable-librubberband --enable-libsnappy --enable-libsrt --enable-libtesseract --enable-libtheora --enable-libvidstab --enable-libvmaf --enable-libvorbis --enable-libvpx --enable-libwebp --enable-libx264 --enable-libx265 --enable-libxml2 --enable-libxvid --enable-lzma --enable-libfontconfig --enable-libfreetype --enable-frei0r --enable-libass --enable-libopencore-amrnb --enable-libopencore-amrwb --enable-libopenjpeg --enable-libspeex --enable-libsoxr --enable-libzmq --enable-libzimg --disable-libjack --disable-indev=jack --enable-videotoolbox\n",
      "  libavutil      57. 17.100 / 57. 17.100\n",
      "  libavcodec     59. 18.100 / 59. 18.100\n",
      "  libavformat    59. 16.100 / 59. 16.100\n",
      "  libavdevice    59.  4.100 / 59.  4.100\n",
      "  libavfilter     8. 24.100 /  8. 24.100\n",
      "  libswscale      6.  4.100 /  6.  4.100\n",
      "  libswresample   4.  3.100 /  4.  3.100\n",
      "  libpostproc    56.  3.100 / 56.  3.100\n",
      "Input #0, mov,mp4,m4a,3gp,3g2,mj2, from '/Users/aking/Desktop/Temp/TmpVideoWithSound.mp4':\n",
      "  Metadata:\n",
      "    major_brand     : isom\n",
      "    minor_version   : 512\n",
      "    compatible_brands: isomiso2avc1mp41\n",
      "    encoder         : Lavf59.16.100\n",
      "  Duration: 00:00:29.74, start: 0.000000, bitrate: 31822 kb/s\n",
      "  Stream #0:0[0x1](und): Video: h264 (High) (avc1 / 0x31637661), yuv420p(progressive), 1080x1920 [SAR 1:1 DAR 9:16], 31598 kb/s, 30 fps, 30 tbr, 15360 tbn (default)\n",
      "    Metadata:\n",
      "      handler_name    : VideoHandler\n",
      "      vendor_id       : [0][0][0][0]\n",
      "  Stream #0:1[0x2](und): Audio: mp3 (mp4a / 0x6134706D), 48000 Hz, stereo, fltp, 256 kb/s (default)\n",
      "    Metadata:\n",
      "      handler_name    : SoundHandler\n",
      "      vendor_id       : [0][0][0][0]\n",
      "Stream mapping:\n",
      "  Stream #0:0 (h264) -> scale:default (graph 0)\n",
      "  framerate:default (graph 0) -> Stream #0:0 (libx264)\n",
      "  Stream #0:1 -> #0:1 (mp3 (mp3float) -> aac (native))\n",
      "Press [q] to stop, [?] for help\n",
      "[Parsed_framerate_1 @ 0x7ff4d5110580] time base:1/15360 -> 1/15360 exact:1\n",
      "[Parsed_framerate_1 @ 0x7ff4d5110580] fps -> fps:30/1 scene score:8.200000 interpolate start:15 end:240\n",
      "[libx264 @ 0x7ff4d2f08f40] using SAR=1/1\n",
      "[libx264 @ 0x7ff4d2f08f40] using cpu capabilities: MMX2 SSE2Fast SSSE3 SSE4.2 AVX FMA3 BMI2 AVX2\n",
      "[libx264 @ 0x7ff4d2f08f40] profile High, level 4.0, 4:2:0, 8-bit\n",
      "[libx264 @ 0x7ff4d2f08f40] 264 - core 163 r3060 5db6aa6 - H.264/MPEG-4 AVC codec - Copyleft 2003-2021 - http://www.videolan.org/x264.html - options: cabac=1 ref=3 deblock=1:0:0 analyse=0x3:0x113 me=hex subme=7 psy=1 psy_rd=1.00:0.00 mixed_ref=1 me_range=16 chroma_me=1 trellis=1 8x8dct=1 cqm=0 deadzone=21,11 fast_pskip=1 chroma_qp_offset=-2 threads=12 lookahead_threads=2 sliced_threads=0 nr=0 decimate=1 interlaced=0 bluray_compat=0 constrained_intra=0 bframes=3 b_pyramid=2 b_adapt=1 b_bias=0 direct=1 weightb=1 open_gop=0 weightp=2 keyint=250 keyint_min=25 scenecut=40 intra_refresh=0 rc_lookahead=40 rc=crf mbtree=1 crf=23.0 qcomp=0.60 qpmin=0 qpmax=69 qpstep=4 ip_ratio=1.40 aq=1:1.00\n",
      "Output #0, mp4, to '/Users/aking/Desktop/Temp/GiantShow1080.mp4':\n",
      "  Metadata:\n",
      "    major_brand     : isom\n",
      "    minor_version   : 512\n",
      "    compatible_brands: isomiso2avc1mp41\n",
      "    encoder         : Lavf59.16.100\n",
      "  Stream #0:0: Video: h264 (avc1 / 0x31637661), yuv420p(progressive), 1080x1920 [SAR 1:1 DAR 9:16], q=2-31, 30 fps, 15360 tbn\n",
      "    Metadata:\n",
      "      encoder         : Lavc59.18.100 libx264\n",
      "    Side data:\n",
      "      cpb: bitrate max/min/avg: 0/0/0 buffer size: 0 vbv_delay: N/A\n",
      "  Stream #0:1(und): Audio: aac (LC) (mp4a / 0x6134706D), 48000 Hz, stereo, fltp, 128 kb/s (default)\n",
      "    Metadata:\n",
      "      handler_name    : SoundHandler\n",
      "      vendor_id       : [0][0][0][0]\n",
      "      encoder         : Lavc59.18.100 aac\n"
     ]
    },
    {
     "name": "stderr",
     "output_type": "stream",
     "text": [
      "frame=  891 fps= 29 q=-1.0 Lsize=   19448kB time=00:00:29.73 bitrate=5357.2kbits/s speed=0.978x    \n",
      "video:19407kB audio:8kB subtitle:0kB other streams:0kB global headers:0kB muxing overhead: 0.167629%\n",
      "[libx264 @ 0x7ff4d2f08f40] frame I:14    Avg QP:20.04  size: 80936\n",
      "[libx264 @ 0x7ff4d2f08f40] frame P:340   Avg QP:24.03  size: 34570\n",
      "[libx264 @ 0x7ff4d2f08f40] frame B:537   Avg QP:25.01  size: 13008\n",
      "[libx264 @ 0x7ff4d2f08f40] consecutive B-frames: 14.3% 11.9% 12.8% 61.1%\n",
      "[libx264 @ 0x7ff4d2f08f40] mb I  I16..4: 16.3% 73.6% 10.2%\n",
      "[libx264 @ 0x7ff4d2f08f40] mb P  I16..4:  8.8% 26.5%  1.9%  P16..4: 30.4%  9.6%  3.3%  0.0%  0.0%    skip:19.6%\n",
      "[libx264 @ 0x7ff4d2f08f40] mb B  I16..4:  2.1%  3.3%  0.2%  B16..8: 34.1%  4.6%  0.6%  direct: 4.1%  skip:51.1%  L0:44.8% L1:50.3% BI: 4.9%\n",
      "[libx264 @ 0x7ff4d2f08f40] 8x8 transform intra:69.4% inter:83.0%\n",
      "[libx264 @ 0x7ff4d2f08f40] coded y,uvDC,uvAC intra: 34.4% 37.6% 8.5% inter: 16.2% 15.9% 0.3%\n",
      "[libx264 @ 0x7ff4d2f08f40] i16 v,h,dc,p: 42% 36% 10% 13%\n",
      "[libx264 @ 0x7ff4d2f08f40] i8 v,h,dc,ddl,ddr,vr,hd,vl,hu: 30% 19% 32%  3%  3%  3%  4%  3%  4%\n",
      "[libx264 @ 0x7ff4d2f08f40] i4 v,h,dc,ddl,ddr,vr,hd,vl,hu: 35% 24% 11%  4%  6%  6%  7%  4%  4%\n",
      "[libx264 @ 0x7ff4d2f08f40] i8c dc,h,v,p: 61% 18% 18%  3%\n",
      "[libx264 @ 0x7ff4d2f08f40] Weighted P-Frames: Y:13.2% UV:2.1%\n",
      "[libx264 @ 0x7ff4d2f08f40] ref P L0: 60.3% 25.8% 10.2%  3.4%  0.3%\n",
      "[libx264 @ 0x7ff4d2f08f40] ref B L0: 90.8%  7.4%  1.8%\n",
      "[libx264 @ 0x7ff4d2f08f40] ref B L1: 97.3%  2.7%\n",
      "[libx264 @ 0x7ff4d2f08f40] kb/s:5352.78\n",
      "[aac @ 0x7ff4d2f0a500] Qavg: 65536.000\n"
     ]
    },
    {
     "name": "stdout",
     "output_type": "stream",
     "text": [
      "轉換完成\n",
      "原始寬度498.0 高度1080.0 FPS30.0\n"
     ]
    },
    {
     "name": "stderr",
     "output_type": "stream",
     "text": [
      "ffmpeg version 5.0 Copyright (c) 2000-2022 the FFmpeg developers\n",
      "  built with Apple clang version 13.0.0 (clang-1300.0.29.30)\n",
      "  configuration: --prefix=/usr/local/Cellar/ffmpeg/5.0 --enable-shared --enable-pthreads --enable-version3 --cc=clang --host-cflags= --host-ldflags= --enable-ffplay --enable-gnutls --enable-gpl --enable-libaom --enable-libbluray --enable-libdav1d --enable-libmp3lame --enable-libopus --enable-librav1e --enable-librist --enable-librubberband --enable-libsnappy --enable-libsrt --enable-libtesseract --enable-libtheora --enable-libvidstab --enable-libvmaf --enable-libvorbis --enable-libvpx --enable-libwebp --enable-libx264 --enable-libx265 --enable-libxml2 --enable-libxvid --enable-lzma --enable-libfontconfig --enable-libfreetype --enable-frei0r --enable-libass --enable-libopencore-amrnb --enable-libopencore-amrwb --enable-libopenjpeg --enable-libspeex --enable-libsoxr --enable-libzmq --enable-libzimg --disable-libjack --disable-indev=jack --enable-videotoolbox\n",
      "  libavutil      57. 17.100 / 57. 17.100\n",
      "  libavcodec     59. 18.100 / 59. 18.100\n",
      "  libavformat    59. 16.100 / 59. 16.100\n",
      "  libavdevice    59.  4.100 / 59.  4.100\n",
      "  libavfilter     8. 24.100 /  8. 24.100\n",
      "  libswscale      6.  4.100 /  6.  4.100\n",
      "  libswresample   4.  3.100 /  4.  3.100\n",
      "  libpostproc    56.  3.100 / 56.  3.100\n",
      "Input #0, mov,mp4,m4a,3gp,3g2,mj2, from '/Users/aking/Desktop/Temp/GiantShow.mp4':\n",
      "  Metadata:\n",
      "    major_brand     : mp42\n",
      "    minor_version   : 1\n",
      "    compatible_brands: isommp41mp42\n",
      "    creation_time   : 2022-04-12T08:46:33.000000Z\n",
      "  Duration: 00:00:29.70, start: 0.000000, bitrate: 7424 kb/s\n",
      "  Stream #0:0[0x1](zho): Audio: aac (LC) (mp4a / 0x6134706D), 48000 Hz, stereo, fltp, 2 kb/s (default)\n",
      "    Metadata:\n",
      "      creation_time   : 2022-04-12T08:46:33.000000Z\n",
      "      handler_name    : Core Media Audio\n",
      "      vendor_id       : [0][0][0][0]\n",
      "  Stream #0:1[0x2](und): Video: h264 (High) (avc1 / 0x31637661), yuv420p(tv, bt709, progressive), 498x1080 [SAR 1:1 DAR 83:180], 7391 kb/s, 30 fps, 30 tbr, 30k tbn (default)\n",
      "    Metadata:\n",
      "      creation_time   : 2022-04-12T08:46:33.000000Z\n",
      "      handler_name    : Core Media Video\n",
      "      vendor_id       : [0][0][0][0]\n",
      "Stream mapping:\n",
      "  Stream #0:0 -> #0:0 (aac (native) -> mp3 (libmp3lame))\n",
      "Press [q] to stop, [?] for help\n",
      "Output #0, mp3, to '/Users/aking/Desktop/Temp/sound.mp3':\n",
      "  Metadata:\n",
      "    major_brand     : mp42\n",
      "    minor_version   : 1\n",
      "    compatible_brands: isommp41mp42\n",
      "    TSSE            : Lavf59.16.100\n",
      "  Stream #0:0(zho): Audio: mp3, 48000 Hz, stereo, fltp, 256 kb/s (default)\n",
      "    Metadata:\n",
      "      creation_time   : 2022-04-12T08:46:33.000000Z\n",
      "      handler_name    : Core Media Audio\n",
      "      vendor_id       : [0][0][0][0]\n",
      "      encoder         : Lavc59.18.100 libmp3lame\n",
      "size=     931kB time=00:00:29.73 bitrate= 256.4kbits/s speed= 156x    \n",
      "video:0kB audio:930kB subtitle:0kB other streams:0kB global headers:0kB muxing overhead: 0.095556%\n",
      "ffmpeg version 5.0 Copyright (c) 2000-2022 the FFmpeg developers\n",
      "  built with Apple clang version 13.0.0 (clang-1300.0.29.30)\n",
      "  configuration: --prefix=/usr/local/Cellar/ffmpeg/5.0 --enable-shared --enable-pthreads --enable-version3 --cc=clang --host-cflags= --host-ldflags= --enable-ffplay --enable-gnutls --enable-gpl --enable-libaom --enable-libbluray --enable-libdav1d --enable-libmp3lame --enable-libopus --enable-librav1e --enable-librist --enable-librubberband --enable-libsnappy --enable-libsrt --enable-libtesseract --enable-libtheora --enable-libvidstab --enable-libvmaf --enable-libvorbis --enable-libvpx --enable-libwebp --enable-libx264 --enable-libx265 --enable-libxml2 --enable-libxvid --enable-lzma --enable-libfontconfig --enable-libfreetype --enable-frei0r --enable-libass --enable-libopencore-amrnb --enable-libopencore-amrwb --enable-libopenjpeg --enable-libspeex --enable-libsoxr --enable-libzmq --enable-libzimg --disable-libjack --disable-indev=jack --enable-videotoolbox\n",
      "  libavutil      57. 17.100 / 57. 17.100\n",
      "  libavcodec     59. 18.100 / 59. 18.100\n",
      "  libavformat    59. 16.100 / 59. 16.100\n",
      "  libavdevice    59.  4.100 / 59.  4.100\n",
      "  libavfilter     8. 24.100 /  8. 24.100\n",
      "  libswscale      6.  4.100 /  6.  4.100\n",
      "  libswresample   4.  3.100 /  4.  3.100\n",
      "  libpostproc    56.  3.100 / 56.  3.100\n",
      "Input #0, mov,mp4,m4a,3gp,3g2,mj2, from '/Users/aking/Desktop/Temp/TmpVideo.mp4':\n",
      "  Metadata:\n",
      "    major_brand     : isom\n",
      "    minor_version   : 512\n",
      "    compatible_brands: isomiso2avc1mp41\n",
      "    encoder         : Lavf58.76.100\n",
      "  Duration: 00:00:29.70, start: 0.000000, bitrate: 29236 kb/s\n",
      "  Stream #0:0[0x1](und): Video: h264 (High) (avc1 / 0x31637661), yuv420p(progressive), 1200x1600 [SAR 1:1 DAR 3:4], 29232 kb/s, 30 fps, 30 tbr, 15360 tbn (default)\n",
      "    Metadata:\n",
      "      handler_name    : VideoHandler\n",
      "      vendor_id       : [0][0][0][0]\n",
      "Input #1, mp3, from '/Users/aking/Desktop/Temp/sound.mp3':\n",
      "  Metadata:\n",
      "    major_brand     : mp42\n",
      "    minor_version   : 1\n",
      "    compatible_brands: isommp41mp42\n",
      "    encoder         : Lavf59.16.100\n",
      "  Duration: 00:00:29.76, start: 0.023021, bitrate: 256 kb/s\n",
      "  Stream #1:0: Audio: mp3, 48000 Hz, stereo, fltp, 256 kb/s\n",
      "    Metadata:\n",
      "      encoder         : Lavc59.18\n",
      "Output #0, mp4, to '/Users/aking/Desktop/Temp/TmpVideoWithSound.mp4':\n",
      "  Metadata:\n",
      "    major_brand     : isom\n",
      "    minor_version   : 512\n",
      "    compatible_brands: isomiso2avc1mp41\n",
      "    encoder         : Lavf59.16.100\n",
      "  Stream #0:0(und): Video: h264 (High) (avc1 / 0x31637661), yuv420p(progressive), 1200x1600 [SAR 1:1 DAR 3:4], q=2-31, 29232 kb/s, 30 fps, 30 tbr, 15360 tbn (default)\n",
      "    Metadata:\n",
      "      handler_name    : VideoHandler\n",
      "      vendor_id       : [0][0][0][0]\n",
      "  Stream #0:1: Audio: mp3 (mp4a / 0x6134706D), 48000 Hz, stereo, fltp, 256 kb/s\n",
      "    Metadata:\n",
      "      encoder         : Lavc59.18\n",
      "Stream mapping:\n",
      "  Stream #0:0 -> #0:0 (copy)\n",
      "  Stream #1:0 -> #0:1 (copy)\n",
      "Press [q] to stop, [?] for help\n",
      "frame=  891 fps=0.0 q=-1.0 Lsize=  106941kB time=00:00:29.73 bitrate=29460.2kbits/s speed=37.9x    \n",
      "video:105984kB audio:930kB subtitle:0kB other streams:0kB global headers:0kB muxing overhead: 0.025101%\n",
      "ffmpeg version 5.0 Copyright (c) 2000-2022 the FFmpeg developers\n",
      "  built with Apple clang version 13.0.0 (clang-1300.0.29.30)\n",
      "  configuration: --prefix=/usr/local/Cellar/ffmpeg/5.0 --enable-shared --enable-pthreads --enable-version3 --cc=clang --host-cflags= --host-ldflags= --enable-ffplay --enable-gnutls --enable-gpl --enable-libaom --enable-libbluray --enable-libdav1d --enable-libmp3lame --enable-libopus --enable-librav1e --enable-librist --enable-librubberband --enable-libsnappy --enable-libsrt --enable-libtesseract --enable-libtheora --enable-libvidstab --enable-libvmaf --enable-libvorbis --enable-libvpx --enable-libwebp --enable-libx264 --enable-libx265 --enable-libxml2 --enable-libxvid --enable-lzma --enable-libfontconfig --enable-libfreetype --enable-frei0r --enable-libass --enable-libopencore-amrnb --enable-libopencore-amrwb --enable-libopenjpeg --enable-libspeex --enable-libsoxr --enable-libzmq --enable-libzimg --disable-libjack --disable-indev=jack --enable-videotoolbox\n",
      "  libavutil      57. 17.100 / 57. 17.100\n",
      "  libavcodec     59. 18.100 / 59. 18.100\n",
      "  libavformat    59. 16.100 / 59. 16.100\n",
      "  libavdevice    59.  4.100 / 59.  4.100\n",
      "  libavfilter     8. 24.100 /  8. 24.100\n",
      "  libswscale      6.  4.100 /  6.  4.100\n",
      "  libswresample   4.  3.100 /  4.  3.100\n",
      "  libpostproc    56.  3.100 / 56.  3.100\n",
      "Input #0, mov,mp4,m4a,3gp,3g2,mj2, from '/Users/aking/Desktop/Temp/TmpVideoWithSound.mp4':\n",
      "  Metadata:\n",
      "    major_brand     : isom\n",
      "    minor_version   : 512\n",
      "    compatible_brands: isomiso2avc1mp41\n",
      "    encoder         : Lavf59.16.100\n",
      "  Duration: 00:00:29.74, start: 0.000000, bitrate: 29460 kb/s\n",
      "  Stream #0:0[0x1](und): Video: h264 (High) (avc1 / 0x31637661), yuv420p(progressive), 1200x1600 [SAR 1:1 DAR 3:4], 29232 kb/s, 30 fps, 30 tbr, 15360 tbn (default)\n",
      "    Metadata:\n",
      "      handler_name    : VideoHandler\n",
      "      vendor_id       : [0][0][0][0]\n",
      "  Stream #0:1[0x2](und): Audio: mp3 (mp4a / 0x6134706D), 48000 Hz, stereo, fltp, 256 kb/s (default)\n",
      "    Metadata:\n",
      "      handler_name    : SoundHandler\n",
      "      vendor_id       : [0][0][0][0]\n",
      "Stream mapping:\n",
      "  Stream #0:0 (h264) -> scale:default (graph 0)\n",
      "  framerate:default (graph 0) -> Stream #0:0 (libx264)\n",
      "  Stream #0:1 -> #0:1 (mp3 (mp3float) -> aac (native))\n",
      "Press [q] to stop, [?] for help\n"
     ]
    },
    {
     "name": "stderr",
     "output_type": "stream",
     "text": [
      "[Parsed_framerate_1 @ 0x7fb8ed906e80] time base:1/15360 -> 1/15360 exact:1\n",
      "[Parsed_framerate_1 @ 0x7fb8ed906e80] fps -> fps:30/1 scene score:8.200000 interpolate start:15 end:240\n",
      "[libx264 @ 0x7fb8ec405700] using SAR=1/1\n",
      "[libx264 @ 0x7fb8ec405700] using cpu capabilities: MMX2 SSE2Fast SSSE3 SSE4.2 AVX FMA3 BMI2 AVX2\n",
      "[libx264 @ 0x7fb8ec405700] profile High, level 4.0, 4:2:0, 8-bit\n",
      "[libx264 @ 0x7fb8ec405700] 264 - core 163 r3060 5db6aa6 - H.264/MPEG-4 AVC codec - Copyleft 2003-2021 - http://www.videolan.org/x264.html - options: cabac=1 ref=3 deblock=1:0:0 analyse=0x3:0x113 me=hex subme=7 psy=1 psy_rd=1.00:0.00 mixed_ref=1 me_range=16 chroma_me=1 trellis=1 8x8dct=1 cqm=0 deadzone=21,11 fast_pskip=1 chroma_qp_offset=-2 threads=12 lookahead_threads=2 sliced_threads=0 nr=0 decimate=1 interlaced=0 bluray_compat=0 constrained_intra=0 bframes=3 b_pyramid=2 b_adapt=1 b_bias=0 direct=1 weightb=1 open_gop=0 weightp=2 keyint=250 keyint_min=25 scenecut=40 intra_refresh=0 rc_lookahead=40 rc=crf mbtree=1 crf=23.0 qcomp=0.60 qpmin=0 qpmax=69 qpstep=4 ip_ratio=1.40 aq=1:1.00\n",
      "Output #0, mp4, to '/Users/aking/Desktop/Temp/GiantShow1200.mp4':\n",
      "  Metadata:\n",
      "    major_brand     : isom\n",
      "    minor_version   : 512\n",
      "    compatible_brands: isomiso2avc1mp41\n",
      "    encoder         : Lavf59.16.100\n",
      "  Stream #0:0: Video: h264 (avc1 / 0x31637661), yuv420p(progressive), 1200x1600 [SAR 1:1 DAR 3:4], q=2-31, 30 fps, 15360 tbn\n",
      "    Metadata:\n",
      "      encoder         : Lavc59.18.100 libx264\n",
      "    Side data:\n",
      "      cpb: bitrate max/min/avg: 0/0/0 buffer size: 0 vbv_delay: N/A\n",
      "  Stream #0:1(und): Audio: aac (LC) (mp4a / 0x6134706D), 48000 Hz, stereo, fltp, 128 kb/s (default)\n",
      "    Metadata:\n",
      "      handler_name    : SoundHandler\n",
      "      vendor_id       : [0][0][0][0]\n",
      "      encoder         : Lavc59.18.100 aac\n",
      "frame=  884 fps= 31 q=29.0 size=   16384kB time=00:00:29.67 bitrate=4523.0kbits/s speed=1.03x    \r"
     ]
    },
    {
     "name": "stdout",
     "output_type": "stream",
     "text": [
      "轉換完成\n"
     ]
    },
    {
     "name": "stderr",
     "output_type": "stream",
     "text": [
      "frame=  891 fps= 29 q=-1.0 Lsize=   18237kB time=00:00:29.73 bitrate=5023.7kbits/s speed=0.97x    \n",
      "video:18196kB audio:8kB subtitle:0kB other streams:0kB global headers:0kB muxing overhead: 0.178343%\n",
      "[libx264 @ 0x7fb8ec405700] frame I:14    Avg QP:20.22  size: 69950\n",
      "[libx264 @ 0x7fb8ec405700] frame P:349   Avg QP:24.27  size: 32264\n",
      "[libx264 @ 0x7fb8ec405700] frame B:528   Avg QP:25.27  size: 12108\n",
      "[libx264 @ 0x7fb8ec405700] consecutive B-frames: 14.6% 15.3% 11.8% 58.4%\n",
      "[libx264 @ 0x7fb8ec405700] mb I  I16..4: 15.5% 75.0%  9.4%\n",
      "[libx264 @ 0x7fb8ec405700] mb P  I16..4:  8.8% 28.6%  1.9%  P16..4: 30.1%  9.2%  2.9%  0.0%  0.0%    skip:18.5%\n",
      "[libx264 @ 0x7fb8ec405700] mb B  I16..4:  2.0%  3.3%  0.1%  B16..8: 35.0%  4.6%  0.6%  direct: 4.0%  skip:50.4%  L0:44.5% L1:50.7% BI: 4.8%\n",
      "[libx264 @ 0x7fb8ec405700] 8x8 transform intra:70.9% inter:84.5%\n",
      "[libx264 @ 0x7fb8ec405700] coded y,uvDC,uvAC intra: 36.7% 38.9% 8.5% inter: 16.7% 16.4% 0.3%\n",
      "[libx264 @ 0x7fb8ec405700] i16 v,h,dc,p: 41% 35% 10% 14%\n",
      "[libx264 @ 0x7fb8ec405700] i8 v,h,dc,ddl,ddr,vr,hd,vl,hu: 30% 19% 30%  3%  3%  4%  4%  3%  4%\n",
      "[libx264 @ 0x7fb8ec405700] i4 v,h,dc,ddl,ddr,vr,hd,vl,hu: 37% 21% 10%  3%  6%  7%  7%  4%  4%\n",
      "[libx264 @ 0x7fb8ec405700] i8c dc,h,v,p: 60% 17% 19%  3%\n",
      "[libx264 @ 0x7fb8ec405700] Weighted P-Frames: Y:13.8% UV:3.7%\n",
      "[libx264 @ 0x7fb8ec405700] ref P L0: 60.7% 25.6%  9.8%  3.6%  0.3%\n",
      "[libx264 @ 0x7fb8ec405700] ref B L0: 91.5%  6.8%  1.6%\n",
      "[libx264 @ 0x7fb8ec405700] ref B L1: 97.7%  2.3%\n",
      "[libx264 @ 0x7fb8ec405700] kb/s:5018.84\n",
      "[aac @ 0x7fb8ec406d00] Qavg: 65536.000\n"
     ]
    }
   ],
   "source": [
    "InputVideoPathName = r'/Users/aking/Desktop/Temp/GiantShow.mp4' #輸入影像的路徑與檔名\n",
    "OutPutWidth = 886           #輸出寬度\n",
    "OutPutHeight = 1920                #輸出高度\n",
    "OutputVideoPathName = r'/Users/aking/Desktop/Temp/GiantShow{}.mp4'.format(OutPutWidth)   #輸出影像的路徑與檔名\n",
    "ResizeVideo(InputVideoPathName,OutPutWidth,OutPutHeight,OutputVideoPathName)\n",
    "\n",
    "OutPutWidth = 1080           #輸出寬度\n",
    "OutPutHeight = 1920                #輸出高度\n",
    "OutputVideoPathName = r'/Users/aking/Desktop/Temp/GiantShow{}.mp4'.format(OutPutWidth)   #輸出影像的路徑與檔名\n",
    "ResizeVideo(InputVideoPathName,OutPutWidth,OutPutHeight,OutputVideoPathName)\n",
    "\n",
    "OutPutWidth = 1200          #輸出寬度\n",
    "OutPutHeight = 1600                #輸出高度\n",
    "OutputVideoPathName = r'/Users/aking/Desktop/Temp/GiantShow{}.mp4'.format(OutPutWidth)   #輸出影像的路徑與檔名\n",
    "ResizeVideo(InputVideoPathName,OutPutWidth,OutPutHeight,OutputVideoPathName)"
   ]
  },
  {
   "cell_type": "code",
   "execution_count": null,
   "id": "658dc900",
   "metadata": {},
   "outputs": [],
   "source": []
  },
  {
   "cell_type": "code",
   "execution_count": null,
   "id": "7b7ce3b6",
   "metadata": {},
   "outputs": [],
   "source": []
  },
  {
   "cell_type": "markdown",
   "id": "f8a72b6d",
   "metadata": {},
   "source": [
    "# 懷舊程式碼"
   ]
  },
  {
   "cell_type": "code",
   "execution_count": 26,
   "id": "ebd4fffa",
   "metadata": {},
   "outputs": [
    {
     "name": "stdout",
     "output_type": "stream",
     "text": [
      "ffmpeg -i /Users/aking/Documents/2021Unity/LAVA/上架檔案/影片/Tmp.mp4 -i /Users/aking/Documents/2021Unity/LAVA/上架檔案/影片/sound.aac -c copy -map 0:v:0 -map 1:a:0 /Users/aking/Documents/2021Unity/LAVA/上架檔案/影片/Lava886S.mp4\n"
     ]
    }
   ],
   "source": [
    "ffmpeg -i /Users/aking/Documents/2021Unity/LAVA/上架檔案/影片/Lava.mov -filter_complex \"scale=1200:1600,framerate=30;\"  /Users/aking/Documents/2021Unity/LAVA/上架檔案/影片/ffout.mp4\n",
    "ffmpeg -i /Users/aking/Documents/2021Unity/LAVA/上架檔案/影片/Lava.mov -filter_complex \"[0:v]setpts=1*PTS,scale=1200:1600,framerate=30[v];[0:a]atempo=8.0[a]\" -map \"[v]\" -map \"[a]\" /Users/aking/Documents/2021Unity/LAVA/上架檔案/影片/ffout1600.mp4"
   ]
  },
  {
   "cell_type": "code",
   "execution_count": 46,
   "id": "a970452a",
   "metadata": {},
   "outputs": [
    {
     "name": "stdout",
     "output_type": "stream",
     "text": [
      "原始寬度1170.0 高度2532.0 FPS41.09424851746791\n"
     ]
    },
    {
     "name": "stderr",
     "output_type": "stream",
     "text": [
      "ffmpeg version 5.0 Copyright (c) 2000-2022 the FFmpeg developers\n",
      "  built with Apple clang version 13.0.0 (clang-1300.0.29.30)\n",
      "  configuration: --prefix=/usr/local/Cellar/ffmpeg/5.0 --enable-shared --enable-pthreads --enable-version3 --cc=clang --host-cflags= --host-ldflags= --enable-ffplay --enable-gnutls --enable-gpl --enable-libaom --enable-libbluray --enable-libdav1d --enable-libmp3lame --enable-libopus --enable-librav1e --enable-librist --enable-librubberband --enable-libsnappy --enable-libsrt --enable-libtesseract --enable-libtheora --enable-libvidstab --enable-libvmaf --enable-libvorbis --enable-libvpx --enable-libwebp --enable-libx264 --enable-libx265 --enable-libxml2 --enable-libxvid --enable-lzma --enable-libfontconfig --enable-libfreetype --enable-frei0r --enable-libass --enable-libopencore-amrnb --enable-libopencore-amrwb --enable-libopenjpeg --enable-libspeex --enable-libsoxr --enable-libzmq --enable-libzimg --disable-libjack --disable-indev=jack --enable-videotoolbox\n",
      "  libavutil      57. 17.100 / 57. 17.100\n",
      "  libavcodec     59. 18.100 / 59. 18.100\n",
      "  libavformat    59. 16.100 / 59. 16.100\n",
      "  libavdevice    59.  4.100 / 59.  4.100\n",
      "  libavfilter     8. 24.100 /  8. 24.100\n",
      "  libswscale      6.  4.100 /  6.  4.100\n",
      "  libswresample   4.  3.100 /  4.  3.100\n",
      "  libpostproc    56.  3.100 / 56.  3.100\n",
      "Input #0, mov,mp4,m4a,3gp,3g2,mj2, from '/Users/aking/Desktop/Temp/Purchase_RestorePurchases.mov':\n",
      "  Metadata:\n",
      "    major_brand     : qt  \n",
      "    minor_version   : 0\n",
      "    compatible_brands: qt  \n",
      "    creation_time   : 2022-04-08T03:00:58.000000Z\n",
      "    com.apple.quicktime.make: Apple\n",
      "    com.apple.quicktime.model: MacBookPro14,3\n",
      "    com.apple.quicktime.software: macOS 12.2.1 (21D62)\n",
      "    com.apple.quicktime.creationdate: 2022-04-08T10:58:40+0800\n",
      "  Duration: 00:00:20.12, start: 0.000000, bitrate: 14019 kb/s\n",
      "  Stream #0:0[0x1](und): Audio: aac (LC) (mp4a / 0x6134706D), 48000 Hz, stereo, fltp, 2 kb/s (default)\n",
      "    Metadata:\n",
      "      creation_time   : 2022-04-08T03:00:58.000000Z\n",
      "      handler_name    : Core Media Audio\n",
      "      vendor_id       : [0][0][0][0]\n",
      "  Stream #0:1[0x2](und): Video: h264 (High) (avc1 / 0x31637661), yuvj420p(pc, bt709, progressive), 1170x2532, 13789 kb/s, 41.09 fps, 59.94 tbr, 60k tbn (default)\n",
      "    Metadata:\n",
      "      creation_time   : 2022-04-08T03:00:58.000000Z\n",
      "      handler_name    : Core Media Video\n",
      "      vendor_id       : [0][0][0][0]\n",
      "      encoder         : H.264\n",
      "Stream mapping:\n",
      "  Stream #0:0 -> #0:0 (aac (native) -> mp3 (libmp3lame))\n",
      "Press [q] to stop, [?] for help\n",
      "Output #0, mp3, to '/Users/aking/Desktop/Temp/sound.mp3':\n",
      "  Metadata:\n",
      "    major_brand     : qt  \n",
      "    minor_version   : 0\n",
      "    compatible_brands: qt  \n",
      "    com.apple.quicktime.creationdate: 2022-04-08T10:58:40+0800\n",
      "    com.apple.quicktime.make: Apple\n",
      "    com.apple.quicktime.model: MacBookPro14,3\n",
      "    com.apple.quicktime.software: macOS 12.2.1 (21D62)\n",
      "    TSSE            : Lavf59.16.100\n",
      "  Stream #0:0(und): Audio: mp3, 48000 Hz, stereo, fltp, 256 kb/s (default)\n",
      "    Metadata:\n",
      "      creation_time   : 2022-04-08T03:00:58.000000Z\n",
      "      handler_name    : Core Media Audio\n",
      "      vendor_id       : [0][0][0][0]\n",
      "      encoder         : Lavc59.18.100 libmp3lame\n",
      "size=     631kB time=00:00:20.13 bitrate= 256.7kbits/s speed= 152x    \n",
      "video:0kB audio:630kB subtitle:0kB other streams:0kB global headers:0kB muxing overhead: 0.174541%\n",
      "ffmpeg version 5.0 Copyright (c) 2000-2022 the FFmpeg developers\n",
      "  built with Apple clang version 13.0.0 (clang-1300.0.29.30)\n",
      "  configuration: --prefix=/usr/local/Cellar/ffmpeg/5.0 --enable-shared --enable-pthreads --enable-version3 --cc=clang --host-cflags= --host-ldflags= --enable-ffplay --enable-gnutls --enable-gpl --enable-libaom --enable-libbluray --enable-libdav1d --enable-libmp3lame --enable-libopus --enable-librav1e --enable-librist --enable-librubberband --enable-libsnappy --enable-libsrt --enable-libtesseract --enable-libtheora --enable-libvidstab --enable-libvmaf --enable-libvorbis --enable-libvpx --enable-libwebp --enable-libx264 --enable-libx265 --enable-libxml2 --enable-libxvid --enable-lzma --enable-libfontconfig --enable-libfreetype --enable-frei0r --enable-libass --enable-libopencore-amrnb --enable-libopencore-amrwb --enable-libopenjpeg --enable-libspeex --enable-libsoxr --enable-libzmq --enable-libzimg --disable-libjack --disable-indev=jack --enable-videotoolbox\n",
      "  libavutil      57. 17.100 / 57. 17.100\n",
      "  libavcodec     59. 18.100 / 59. 18.100\n",
      "  libavformat    59. 16.100 / 59. 16.100\n",
      "  libavdevice    59.  4.100 / 59.  4.100\n",
      "  libavfilter     8. 24.100 /  8. 24.100\n",
      "  libswscale      6.  4.100 /  6.  4.100\n",
      "  libswresample   4.  3.100 /  4.  3.100\n",
      "  libpostproc    56.  3.100 / 56.  3.100\n",
      "Input #0, mov,mp4,m4a,3gp,3g2,mj2, from '/Users/aking/Desktop/Temp/TmpVideo.mp4':\n",
      "  Metadata:\n",
      "    major_brand     : isom\n",
      "    minor_version   : 512\n",
      "    compatible_brands: isomiso2avc1mp41\n",
      "    encoder         : Lavf58.76.100\n",
      "  Duration: 00:00:19.96, start: 0.000000, bitrate: 12562 kb/s\n",
      "  Stream #0:0[0x1](und): Video: h264 (High) (avc1 / 0x31637661), yuv420p(progressive), 886x1920 [SAR 1:1 DAR 443:960], 12559 kb/s, 41.09 fps, 41.09 tbr, 41094 tbn (default)\n",
      "    Metadata:\n",
      "      handler_name    : VideoHandler\n",
      "      vendor_id       : [0][0][0][0]\n",
      "Input #1, mp3, from '/Users/aking/Desktop/Temp/sound.mp3':\n",
      "  Metadata:\n",
      "    major_brand     : qt  \n",
      "    minor_version   : 0\n",
      "    compatible_brands: qt  \n",
      "    com.apple.quicktime.creationdate: 2022-04-08T10:58:40+0800\n",
      "    com.apple.quicktime.make: Apple\n",
      "    com.apple.quicktime.model: MacBookPro14,3\n",
      "    com.apple.quicktime.software: macOS 12.2.1 (21D62)\n",
      "    encoder         : Lavf59.16.100\n",
      "  Duration: 00:00:20.16, start: 0.023021, bitrate: 256 kb/s\n",
      "  Stream #1:0: Audio: mp3, 48000 Hz, stereo, fltp, 256 kb/s\n",
      "    Metadata:\n",
      "      encoder         : Lavc59.18\n",
      "Output #0, mp4, to '/Users/aking/Desktop/Temp/TmpVideoWithSound.mp4':\n",
      "  Metadata:\n",
      "    major_brand     : isom\n",
      "    minor_version   : 512\n",
      "    compatible_brands: isomiso2avc1mp41\n",
      "    encoder         : Lavf59.16.100\n",
      "  Stream #0:0(und): Video: h264 (High) (avc1 / 0x31637661), yuv420p(progressive), 886x1920 [SAR 1:1 DAR 443:960], q=2-31, 12559 kb/s, 41.09 fps, 41.09 tbr, 41094 tbn (default)\n",
      "    Metadata:\n",
      "      handler_name    : VideoHandler\n",
      "      vendor_id       : [0][0][0][0]\n",
      "  Stream #0:1: Audio: mp3 (mp4a / 0x6134706D), 48000 Hz, stereo, fltp, 256 kb/s\n",
      "    Metadata:\n",
      "      encoder         : Lavc59.18\n",
      "Stream mapping:\n",
      "  Stream #0:0 -> #0:0 (copy)\n",
      "  Stream #1:0 -> #0:1 (copy)\n",
      "Press [q] to stop, [?] for help\n",
      "frame=  820 fps=0.0 q=-1.0 Lsize=   31239kB time=00:00:20.13 bitrate=12708.5kbits/s speed= 895x    \n",
      "video:30592kB audio:630kB subtitle:0kB other streams:0kB global headers:0kB muxing overhead: 0.056420%\n",
      "ffmpeg version 5.0 Copyright (c) 2000-2022 the FFmpeg developers\n",
      "  built with Apple clang version 13.0.0 (clang-1300.0.29.30)\n",
      "  configuration: --prefix=/usr/local/Cellar/ffmpeg/5.0 --enable-shared --enable-pthreads --enable-version3 --cc=clang --host-cflags= --host-ldflags= --enable-ffplay --enable-gnutls --enable-gpl --enable-libaom --enable-libbluray --enable-libdav1d --enable-libmp3lame --enable-libopus --enable-librav1e --enable-librist --enable-librubberband --enable-libsnappy --enable-libsrt --enable-libtesseract --enable-libtheora --enable-libvidstab --enable-libvmaf --enable-libvorbis --enable-libvpx --enable-libwebp --enable-libx264 --enable-libx265 --enable-libxml2 --enable-libxvid --enable-lzma --enable-libfontconfig --enable-libfreetype --enable-frei0r --enable-libass --enable-libopencore-amrnb --enable-libopencore-amrwb --enable-libopenjpeg --enable-libspeex --enable-libsoxr --enable-libzmq --enable-libzimg --disable-libjack --disable-indev=jack --enable-videotoolbox\n",
      "  libavutil      57. 17.100 / 57. 17.100\n",
      "  libavcodec     59. 18.100 / 59. 18.100\n",
      "  libavformat    59. 16.100 / 59. 16.100\n",
      "  libavdevice    59.  4.100 / 59.  4.100\n",
      "  libavfilter     8. 24.100 /  8. 24.100\n",
      "  libswscale      6.  4.100 /  6.  4.100\n",
      "  libswresample   4.  3.100 /  4.  3.100\n",
      "  libpostproc    56.  3.100 / 56.  3.100\n",
      "Input #0, mov,mp4,m4a,3gp,3g2,mj2, from '/Users/aking/Desktop/Temp/TmpVideoWithSound.mp4':\n",
      "  Metadata:\n",
      "    major_brand     : isom\n",
      "    minor_version   : 512\n",
      "    compatible_brands: isomiso2avc1mp41\n",
      "    encoder         : Lavf59.16.100\n",
      "  Duration: 00:00:20.14, start: 0.000000, bitrate: 12708 kb/s\n",
      "  Stream #0:0[0x1](und): Video: h264 (High) (avc1 / 0x31637661), yuv420p(progressive), 886x1920 [SAR 1:1 DAR 443:960], 12559 kb/s, 41.09 fps, 41.09 tbr, 41094 tbn (default)\n",
      "    Metadata:\n",
      "      handler_name    : VideoHandler\n",
      "      vendor_id       : [0][0][0][0]\n",
      "  Stream #0:1[0x2](und): Audio: mp3 (mp4a / 0x6134706D), 48000 Hz, stereo, fltp, 256 kb/s (default)\n",
      "    Metadata:\n",
      "      handler_name    : SoundHandler\n",
      "      vendor_id       : [0][0][0][0]\n",
      "Stream mapping:\n",
      "  Stream #0:0 (h264) -> scale:default (graph 0)\n",
      "  framerate:default (graph 0) -> Stream #0:0 (libx264)\n",
      "  Stream #0:1 -> #0:1 (mp3 (mp3float) -> aac (native))\n",
      "Press [q] to stop, [?] for help\n",
      "[Parsed_framerate_1 @ 0x7fe600730800] time base:1/41094 -> 1/205470 exact:1\n",
      "[Parsed_framerate_1 @ 0x7fe600730800] fps -> fps:30/1 scene score:8.200000 interpolate start:15 end:240\n",
      "[libx264 @ 0x7fe601205b80] using SAR=1/1\n",
      "[libx264 @ 0x7fe601205b80] using cpu capabilities: MMX2 SSE2Fast SSSE3 SSE4.2 AVX FMA3 BMI2 AVX2\n",
      "[libx264 @ 0x7fe601205b80] profile High, level 4.0, 4:2:0, 8-bit\n",
      "[libx264 @ 0x7fe601205b80] 264 - core 163 r3060 5db6aa6 - H.264/MPEG-4 AVC codec - Copyleft 2003-2021 - http://www.videolan.org/x264.html - options: cabac=1 ref=3 deblock=1:0:0 analyse=0x3:0x113 me=hex subme=7 psy=1 psy_rd=1.00:0.00 mixed_ref=1 me_range=16 chroma_me=1 trellis=1 8x8dct=1 cqm=0 deadzone=21,11 fast_pskip=1 chroma_qp_offset=-2 threads=12 lookahead_threads=2 sliced_threads=0 nr=0 decimate=1 interlaced=0 bluray_compat=0 constrained_intra=0 bframes=3 b_pyramid=2 b_adapt=1 b_bias=0 direct=1 weightb=1 open_gop=0 weightp=2 keyint=250 keyint_min=25 scenecut=40 intra_refresh=0 rc_lookahead=40 rc=crf mbtree=1 crf=23.0 qcomp=0.60 qpmin=0 qpmax=69 qpstep=4 ip_ratio=1.40 aq=1:1.00\n",
      "Output #0, mp4, to '/Users/aking/Desktop/Temp/Purchase_RestorePurchases886.mp4':\n",
      "  Metadata:\n",
      "    major_brand     : isom\n",
      "    minor_version   : 512\n",
      "    compatible_brands: isomiso2avc1mp41\n",
      "    encoder         : Lavf59.16.100\n",
      "  Stream #0:0: Video: h264 (avc1 / 0x31637661), yuv420p(progressive), 886x1920 [SAR 1:1 DAR 443:960], q=2-31, 30 fps, 15360 tbn\n",
      "    Metadata:\n",
      "      encoder         : Lavc59.18.100 libx264\n",
      "    Side data:\n",
      "      cpb: bitrate max/min/avg: 0/0/0 buffer size: 0 vbv_delay: N/A\n",
      "  Stream #0:1(und): Audio: aac (LC) (mp4a / 0x6134706D), 48000 Hz, stereo, fltp, 128 kb/s (default)\n",
      "    Metadata:\n",
      "      handler_name    : SoundHandler\n",
      "      vendor_id       : [0][0][0][0]\n",
      "      encoder         : Lavc59.18.100 aac\n"
     ]
    },
    {
     "name": "stderr",
     "output_type": "stream",
     "text": [
      "frame=  520 fps= 61 q=29.0 size=    3584kB time=00:00:17.47 bitrate=1680.4kbits/s speed=2.06x    \r"
     ]
    },
    {
     "name": "stdout",
     "output_type": "stream",
     "text": [
      "轉換完成\n"
     ]
    },
    {
     "name": "stderr",
     "output_type": "stream",
     "text": [
      "frame=  599 fps= 67 q=-1.0 Lsize=    3716kB time=00:00:20.13 bitrate=1511.4kbits/s speed=2.24x    \n",
      "video:3687kB audio:6kB subtitle:0kB other streams:0kB global headers:0kB muxing overhead: 0.611658%\n",
      "[libx264 @ 0x7fe601205b80] frame I:7     Avg QP:17.46  size: 36329\n",
      "[libx264 @ 0x7fe601205b80] frame P:181   Avg QP:18.80  size: 10009\n",
      "[libx264 @ 0x7fe601205b80] frame B:411   Avg QP:18.42  size:  4159\n",
      "[libx264 @ 0x7fe601205b80] consecutive B-frames:  6.3%  3.3%  9.5% 80.8%\n",
      "[libx264 @ 0x7fe601205b80] mb I  I16..4: 43.5% 46.8%  9.7%\n",
      "[libx264 @ 0x7fe601205b80] mb P  I16..4: 10.9% 14.3%  1.4%  P16..4: 11.5%  1.8%  0.8%  0.0%  0.0%    skip:59.3%\n",
      "[libx264 @ 0x7fe601205b80] mb B  I16..4:  1.4%  1.3%  0.2%  B16..8: 13.7%  1.5%  0.2%  direct: 1.9%  skip:79.9%  L0:47.2% L1:49.9% BI: 2.9%\n",
      "[libx264 @ 0x7fe601205b80] 8x8 transform intra:51.5% inter:86.3%\n",
      "[libx264 @ 0x7fe601205b80] coded y,uvDC,uvAC intra: 20.2% 29.1% 5.1% inter: 3.6% 5.3% 0.1%\n",
      "[libx264 @ 0x7fe601205b80] i16 v,h,dc,p: 57% 26%  6% 10%\n",
      "[libx264 @ 0x7fe601205b80] i8 v,h,dc,ddl,ddr,vr,hd,vl,hu: 33% 18% 34%  3%  2%  2%  2%  2%  2%\n",
      "[libx264 @ 0x7fe601205b80] i4 v,h,dc,ddl,ddr,vr,hd,vl,hu: 38% 24% 16%  4%  3%  4%  4%  3%  3%\n",
      "[libx264 @ 0x7fe601205b80] i8c dc,h,v,p: 65% 17% 16%  2%\n",
      "[libx264 @ 0x7fe601205b80] Weighted P-Frames: Y:1.1% UV:0.6%\n",
      "[libx264 @ 0x7fe601205b80] ref P L0: 58.7%  7.8% 21.5% 11.9%  0.0%\n",
      "[libx264 @ 0x7fe601205b80] ref B L0: 77.7% 17.6%  4.7%\n",
      "[libx264 @ 0x7fe601205b80] ref B L1: 92.5%  7.5%\n",
      "[libx264 @ 0x7fe601205b80] kb/s:1512.63\n",
      "[aac @ 0x7fe601207280] Qavg: 65536.000\n"
     ]
    }
   ],
   "source": [
    "import cv2\n",
    "import os\n",
    "\n",
    "#InputVideoPathName = r'/Users/aking/Documents/2021Unity/LAVA/上架檔案/影片/RestoreAndPurchases.mov'  #輸入影像的路徑與檔名\n",
    "#OutPutWidth = 560            #輸出寬度\n",
    "#OutPutHeight = 1200                 #輸出高度\n",
    "#OutputVideoPathName = r'/Users/aking/Documents/2021Unity/LAVA/上架檔案/影片/RestoreAndPurchases.mp4'   #輸出影像的路徑與檔名\n",
    "\n",
    "\n",
    "\n",
    "InputVideoPathName = r'/Users/aking/Desktop/Temp/Purchase_RestorePurchases.mov' #輸入影像的路徑與檔名\n",
    "OutPutWidth = 886           #輸出寬度\n",
    "OutPutHeight = 1920                #輸出高度\n",
    "OutputVideoPathName = r'/Users/aking/Desktop/Temp/Purchase_RestorePurchases{}.mp4'.format(OutPutWidth)   #輸出影像的路徑與檔名\n",
    "\n",
    "\n",
    "#=======================輸入設定====================================\n",
    "video = cv2.VideoCapture(InputVideoPathName)\n",
    "# 取得影像的尺寸大小\n",
    "width = video.get(cv2.CAP_PROP_FRAME_WIDTH)\n",
    "height = video.get(cv2.CAP_PROP_FRAME_HEIGHT)\n",
    "fps = video.get(cv2.CAP_PROP_FPS) #每秒鐘幾張\n",
    "print (\"原始寬度{} 高度{} FPS{}\".format(width , height,fps))\n",
    "\n",
    "\n",
    "#=======================輸出檔案設定=======================\n",
    "fourcc = cv2.VideoWriter_fourcc(*'avc1')\n",
    "VideoFilePath = r\"{}/TmpVideo.mp4\".format(os.path.dirname(InputVideoPathName)) #解析度調整後的畫面\n",
    "SoundFilePath = r\"{}/sound.mp3\".format(os.path.dirname(InputVideoPathName))    #原始檔案分離出聲音\n",
    "VideoWithSoundFilePath = r\"{}/TmpVideoWithSound.mp4\".format(os.path.dirname(InputVideoPathName)) #畫面與聲音合成影片\n",
    "#畫面與聲音合成影片 之後需要再轉檔一次 app store才會接受\n",
    "\n",
    "out = cv2.VideoWriter(VideoFilePath, fourcc, fps, (int(OutPutWidth),  int(OutPutHeight)))\n",
    "#=============開始轉換====================================\n",
    "while video.isOpened():\n",
    "    ret, frame = video.read()\n",
    "    if not ret:\n",
    "        break\n",
    "    image = AkingResize(frame, OutPutWidth, OutPutHeight)\n",
    "    out.write(image)\n",
    "    cv2.imshow('frame', image)\n",
    "    if cv2.waitKey(1) == ord('q'):\n",
    "        break\n",
    "video.release()\n",
    "out.release()\n",
    "\n",
    "CMD = r\"ffmpeg -i {} -f mp3 -ab 256000 -vn {}\".format(InputVideoPathName,SoundFilePath) #原始檔案分離出聲音\n",
    "os.system(CMD) #原始檔案分離出聲音\n",
    "\n",
    "\n",
    "CMD1 = r\"ffmpeg -i {} -i {} -c copy -map 0:v:0 -map 1:a:0 {}\".format(VideoFilePath, SoundFilePath , VideoWithSoundFilePath)\n",
    "os.system(CMD1) #畫面與聲音合成影片\n",
    "\n",
    "CMD2 = \"ffmpeg -i {} -filter_complex 'scale={}:{},framerate=30' {}\".format(VideoWithSoundFilePath , OutPutWidth,OutPutHeight,OutputVideoPathName)\n",
    "os.system(CMD2) #最後再轉檔案一次 App store才會吃\n",
    "\n",
    "\n",
    "\n",
    "os.system(\"rm -f {}\".format(VideoFilePath)) \n",
    "os.system(\"rm -f {}\".format(SoundFilePath)) \n",
    "os.system(\"rm -f {}\".format(VideoWithSoundFilePath)) \n",
    "\n",
    "\n",
    "\n",
    "print(\"轉換完成\")\n",
    "cv2.destroyAllWindows()"
   ]
  }
 ],
 "metadata": {
  "kernelspec": {
   "display_name": "Python 3 (ipykernel)",
   "language": "python",
   "name": "python3"
  },
  "language_info": {
   "codemirror_mode": {
    "name": "ipython",
    "version": 3
   },
   "file_extension": ".py",
   "mimetype": "text/x-python",
   "name": "python",
   "nbconvert_exporter": "python",
   "pygments_lexer": "ipython3",
   "version": "3.9.12"
  }
 },
 "nbformat": 4,
 "nbformat_minor": 5
}
